<?xml version="1.0" encoding="utf-8"?>
<!-- Generator: Adobe Illustrator 16.0.0, SVG Export Plug-In . SVG Version: 6.00 Build 0)  -->
<!DOCTYPE svg PUBLIC "-//W3C//DTD SVG 1.1//EN" "http://www.w3.org/Graphics/SVG/1.1/DTD/svg11.dtd">
<svg version="1.1" id="Layer_1" xmlns="http://www.w3.org/2000/svg" xmlns:xlink="http://www.w3.org/1999/xlink" x="0px" y="0px"
	 width="140px" height="120px" viewBox="0 0 140 120" style="enable-background:new 0 0 140 120;" xml:space="preserve">
<style type="text/css">
<![CDATA[
	.st0{clip-path:url(#SVGID_2_);fill:#D9EDEA;}
	.st1{fill:#122F3F;}
	.st2{fill:none;stroke:#FFFFFF;stroke-width:1.109;stroke-miterlimit:10;}
	.st3{opacity:0.13;}
	.st4{fill:#30BDBB;}
]]>
</style>
<rect class="st4" width="140" height="120"/>
<rect x="7.5" y="7.5" class="st2" width="125" height="105"/>
<rect x="15" y="15" class="st1" width="110" height="90"/>
<g class="st3">
	<g>
		<defs>
			<rect id="SVGID_1_" x="30.2" y="16.3" width="79.5" height="87.4"/>
		</defs>
		<clipPath id="SVGID_2_">
			<use xlink:href="#SVGID_1_"  style="overflow:visible;"/>
		</clipPath>
		<path class="st0" d="M87.2,37.6c0.6,2.9,1.3,5.7,1.9,8.6c0.2,0.8,0.3,1.6,0.4,2.4c0.3,2.2,0.5,4.4,0.8,6.6
			c0.1,3.5,0.2,7.1,0.2,10.6c-0.2,2.2-0.4,4.4-0.5,6.6c-0.6,3.1-1.2,6.1-1.8,9.2c-1.7-0.2-3.3-0.4-5-0.7c0.3-1.5,0.6-2.9,0.9-4.4
			c0.3-2.1,0.6-4.2,0.9-6.4c0.1-1.2,0.4-2.4,0.4-3.6c0-5-0.2-10-0.3-15c-0.3-2.2-0.6-4.4-0.8-6.6c-0.5-2-1-4.1-1.5-6.1
			c-0.5-1.4-1-2.8-1.5-4.2c-1.4-3.7-3.3-6.9-6.4-9.6c-2.1,1.5-4.2,1.8-6.3,0.3c-1.7-1.2-2.3-3.1-1.9-5.3c0.4-1.8,2.3-3.5,4.4-3.7
			c1.5-0.1,3.7,0.5,4.5,2.4c0.7,1.6,1.7,2.6,2.9,3.7c3.1,2.8,5.1,6.4,6.8,10.3c0.1,0.2,0.2,0.4,0.3,0.7
			C86.2,34.8,86.7,36.2,87.2,37.6"/>
		<path class="st0" d="M84.9,70.2c-0.3,2.1-0.6,4.2-0.9,6.4c-0.5,0.3-1.1,0.6-1.6,1c-1.3,0.8-2.6,1.7-3.9,2.6c-2,1-4,2-6,3
			c-4.2,1.5-8.3,3-12.5,4.5c-1.6,0.3-3.2,0.7-4.8,1c-2.6,0.2-5.3,0.6-7.9,0.5c-2.4-0.1-4.8-0.5-7-1.2c-5.8-1.8-8.4-6.4-7.4-12.4
			c0.8-4.9,3.2-9.1,6.1-13.1c1.2,1.1,2.4,2.2,3.5,3.4c-2.5,3.6-4.6,7.5-5,12c-0.3,2.5,0.6,4.1,2.8,5.2c0.6,0.3,1.3,0.6,2,0.8
			c3.7,1.1,7.5,0.8,11.2,0.2c1.5-0.3,3.1-0.7,4.6-1c2.5-0.8,5-1.7,7.4-2.5c2-0.8,3.9-1.7,5.9-2.5c0.3-0.2,0.7-0.3,1-0.5
			C76.7,75,80.8,72.6,84.9,70.2"/>
		<path class="st0" d="M84.2,44.9c0.3,2.2,0.6,4.4,0.8,6.6c-2.6-1.4-5.2-3-7.8-4.3c-2.3-1.2-4.8-2.1-7.2-3.1
			c-1.9-0.7-3.9-1.5-5.8-2.2c-2.2-0.6-4.4-1.2-6.7-1.9c-1.4-0.2-2.8-0.4-4.2-0.7c-4-0.5-7.9-0.3-11.7,0.8c-1.1,0.3-1.7,0.8-1.6,2.2
			c0.1,2.7-2.2,5-4.9,4.9c-3-0.1-5-2.6-4.8-5.6c0.2-2.6,3-4.6,5.6-4.3c0.6,0.1,1.2,0,1.8-0.2c4.6-2,9.5-2.6,14.5-2.2
			c0.8,0.1,1.7,0.1,2.5,0.2c1.5,0.2,2.9,0.4,4.4,0.7c3.7,1.1,7.5,2.1,11.2,3.2c2,0.8,3.9,1.5,5.9,2.3c2.6,1.3,5.1,2.5,7.7,3.8
			C84,45,84.1,44.9,84.2,44.9"/>
		<path class="st0" d="M72.6,83.1c2-1,4-2,6-3c1.5,0.3,3.1,0.6,4.6,0.8c1.7,0.2,3.3,0.4,5,0.6c4.4,0.2,8.8,0,12.9-1.7
			c3.7-1.6,4.7-3.6,3.6-7.5c-0.9-3.3-2.9-6-5-8.7c1-1.3,2-2.7,3-4c1.6,2.4,3.4,4.6,4.7,7.1c1.1,2.2,2,4.6,2.3,7.1
			c0.7,4.9-1.9,8.2-6.1,10.3c-3,1.5-6.3,2.2-9.7,2.3c-2.4,0.1-4.8-0.1-7.1-0.2c-1.6-0.2-3.3-0.5-4.9-0.7
			C78.7,84.7,75.6,83.9,72.6,83.1"/>
		<path class="st0" d="M42.6,65.7c-1.2-1.1-2.4-2.2-3.5-3.4c-2-2.6-3.9-5.1-5.8-7.7c-0.6-0.8-1-1.7-1.4-2.4c1.8-0.1,3.4-0.2,5.1-0.2
			c0.3,0,0.7,0.5,0.9,0.8c1.4,2,2.8,4,4.2,6.1c1.1,1.1,2.2,2.2,3.3,3.4c1.8,1.5,3.5,3,5.3,4.4c1.6,1.1,3.3,2.2,4.9,3.3
			c0.3,0.2,0.6,0.4,0.9,0.6c5.1,2.5,10.2,4.9,15.2,7.4c-2,0.8-3.9,1.7-5.9,2.5c-0.4-0.1-0.7-0.2-1.1-0.4c-2.7-1.3-5.4-2.7-8.1-4
			c-1.7-1.1-3.4-2.2-5.2-3.3C48.4,70.4,45.5,68.1,42.6,65.7"/>
		<path class="st0" d="M81.8,85.5c1.6,0.2,3.3,0.5,4.9,0.7c-1.8,5.1-4.2,9.9-8,13.8c-4.7,4.7-10.5,4.9-15.5,0.5
			c-3.7-3.3-6.1-7.4-7.9-12c1.6-0.3,3.2-0.7,4.8-1c0.7,1.4,1.3,2.8,2.1,4.1c1.5,2.5,3.3,4.8,5.7,6.4c1.8,1.2,3.7,1.5,5.5,0
			c1.1-0.8,2.1-1.7,3-2.7C79,92.5,80.5,89.1,81.8,85.5"/>
		<path class="st0" d="M102.7,59.7c-1,1.3-2,2.7-3,4c-0.3,0.3-0.5,0.5-0.8,0.8c-3,2.6-5.9,5.3-8.9,7.9c0.2-2.2,0.4-4.4,0.5-6.6
			c1.9-1.9,3.9-3.8,5.8-5.7c1-1.2,1.9-2.5,2.9-3.7c0.6-0.8,1.2-1.5,1.7-2.2c-1.7-2.9-1.6-5.1,0.2-7c1.4-1.4,3.5-1.8,5.3-1
			c1.9,0.8,3,2.6,2.9,4.7c0,1.9-1.2,3.8-3.1,4.3c-1.2,0.3-1.7,1-2.2,2C103.8,58,103.2,58.8,102.7,59.7"/>
		<path class="st0" d="M55.5,69.9c-1.6-1.1-3.3-2.2-4.9-3.3c0-3.2,0-6.4-0.1-9.6c0.2-2.2,0.4-4.3,0.5-6.5c0.7-3.4,1.4-6.8,2.1-10.2
			c0.1-0.3,0.2-0.7,0.3-1c1.4,0.2,2.8,0.4,4.2,0.7c-0.5,2.2-0.9,4.5-1.4,6.7c-0.2,2.1-0.5,4.1-0.8,6.2L55.5,69.9z"/>
		<path class="st0" d="M87.2,37.6c-0.5-1.4-1-2.8-1.5-4.2c5.3-1.1,10.6-1.6,15.7,0.6c3.5,1.4,6.1,4.3,7.2,7.6
			c-0.8-0.1-1.7-0.2-2.5-0.1c-0.8,0.1-1.7,0.3-2.5,0.5c-3.3-5-8.3-5.2-13.5-4.8C89.1,37.2,88.2,37.4,87.2,37.6"/>
		<path class="st0" d="M59,35.7c-1.5-0.2-2.9-0.4-4.4-0.7c1.9-3.7,3.7-7.4,5.6-11.2c0.2-0.4,0.6-0.8,0.8-1.2c0.8,1.6,1.7,3.2,2.6,5
			C61.7,30,60.1,32.7,59,35.7"/>
		<path class="st0" d="M99.3,56.4c-1,1.2-1.9,2.5-2.9,3.7c-2-1.6-4.1-3.3-6.1-4.9c-0.3-2.2-0.5-4.4-0.8-6.6
			C93.1,50.8,96.4,53.3,99.3,56.4"/>
		<path class="st0" d="M51,50.5c-0.2,2.2-0.4,4.3-0.5,6.5c-1.7,1.7-3.5,3.5-5.2,5.2c-1.1-1.1-2.2-2.2-3.3-3.4
			C45,56.1,48,53.3,51,50.5"/>
		<path class="st0" d="M76.2,41.2c-2-0.8-3.9-1.5-5.9-2.3c3.7-1.4,7.3-2.9,11-4.3c0.5,1.4,1,2.8,1.5,4.2
			C80.6,39.6,78.4,40.4,76.2,41.2"/>
		<path class="st0" d="M53.6,83.9c-0.8-3.7-1.5-7.5-2.3-11.2c1.7,1.1,3.4,2.2,5.2,3.3c0.6,2.3,1.2,4.6,1.8,7
			C56.7,83.3,55.1,83.6,53.6,83.9"/>
		<path class="st0" d="M70,44.1c-4.9,2.9-9.7,5.9-14.6,8.8c0.3-2.1,0.5-4.1,0.8-6.2c2.7-1.6,5.4-3.2,8.1-4.8
			C66.2,42.6,68.1,43.4,70,44.1"/>
		<path class="st0" d="M70.4,71.1c-5.5,0-9.9-4.4-9.9-9.8c0-5.4,4.4-9.8,9.8-9.8c5.4-0.1,9.9,4.4,9.9,9.9
			C80.2,66.7,75.8,71.1,70.4,71.1 M72.2,53.6c0.1,0.1,0.2,0.2,0.3,0.3c-0.1,0.3-0.3,0.5-0.4,0.8c-0.1,0.1-0.2,0.3-0.3,0.4
			c-0.1,0-0.2,0.1-0.2,0.1l-0.8,0.2c-0.3,0.2-0.7,0.4-1,0.6c-0.3,0-0.6,0-0.8,0c-0.7-0.7-1-2-2.4-1.8c0.3-0.2,0.6-0.4,0.9-0.6
			c0.6-0.1,1.2-0.2,1.7-0.3c-0.1-0.2-0.1-0.4-0.2-0.6c-0.5,0.2-1.1,0.5-1.6,0.7c-0.7,0.3-1.4,0.5-2.4,0.9c1.1,0.5,1.8,0.8,2.5,1.2
			l-0.3,0.2c0.1,0.3,0.1,0.6,0.3,0.7c0.9,1,0.8,1.1-0.4,1.7c-0.7,0.3-1.1,1.1-1.7,1.7c-0.3-0.1-0.7-0.2-1-0.2
			c-0.3,0.1-0.7,0.4-1,0.5c0.3,0.1,0.6,0.2,0.8,0.4c0.2,0.1,0.3,0.3,0.5,0.5c0.3,0.4,0.4,1.1,1.3,0.6c0.4-0.2,1.1-0.1,1.5,0.1
			c1,0.6,1.9,1.3,2.9,1.9c-0.4,1.6-1.6,2.6-2.9,3.6c-0.9,0.8-1,1.6-0.2,2c3,1.3,7.5,0.1,8.9-2.1c-0.2-1.2-0.4-2.2-0.5-3.1
			c-0.1-1.1-0.8-1.7-1.7-1.7c-0.5,0-1.3-0.3-1.5-0.6c-0.2-0.5,0-1.2,0.1-1.8c0.1-0.5,0.2-1.1,0.5-1.5c0.5-0.5,0.4-1.7,1.6-1.5
			c0.1,0,0.2-0.1,0.4-0.2c-0.1-0.3-0.2-0.5-0.3-0.7c0.4-0.4,0.8-0.7,1.4-1.2c-1.2-0.6-2.2-1.2-3.2-1.7c-0.5-0.1-1-0.3-1.8-0.5
			C71.9,53.2,72,53.4,72.2,53.6 M61.9,60.3c-0.5,3.3,1.1,6.6,4,8.2c0.1-0.6,0.4-1.2,0.4-1.8c0-0.6,0-1.3-0.2-1.9
			c-0.2-0.8-0.6-1.6-0.9-2.3c0.1-0.1,0.2-0.1,0.4-0.2C64.4,61.6,63.2,61,61.9,60.3"/>
		<path class="st0" d="M67.4,53.7c0-0.1,0-0.2,0-0.2c0.5-0.2,1.1-0.5,1.6-0.7c0.1,0.2,0.1,0.4,0.2,0.6C68.6,53.4,68,53.6,67.4,53.7"
			/>
		<path class="st0" d="M72.2,53.6c0.3,0,0.5-0.1,0.8-0.1c-0.1,0.1-0.3,0.3-0.4,0.4C72.5,53.8,72.3,53.7,72.2,53.6"/>
		<path class="st0" d="M69.7,56c-0.3,0-0.6,0-0.8,0C69.2,56,69.5,56,69.7,56"/>
		<path class="st0" d="M71.5,55.2c-0.3,0.1-0.5,0.1-0.8,0.2C71,55.4,71.3,55.3,71.5,55.2"/>
		<path class="st0" d="M72.1,54.7c-0.1,0.1-0.2,0.3-0.3,0.4C71.9,55,72,54.9,72.1,54.7"/>
	</g>
</g>
<g>
</g>
<g>
</g>
<g>
</g>
<g>
</g>
<g>
</g>
<g>
</g>
<g>
</g>
<g>
</g>
<g>
</g>
<g>
</g>
<g>
</g>
<g>
</g>
<g>
</g>
<g>
</g>
<g>
</g>
</svg>
