<?xml version="1.0" encoding="utf-8"?>
<!-- Generator: Adobe Illustrator 16.0.0, SVG Export Plug-In . SVG Version: 6.00 Build 0)  -->
<!DOCTYPE svg PUBLIC "-//W3C//DTD SVG 1.1//EN" "http://www.w3.org/Graphics/SVG/1.1/DTD/svg11.dtd">
<svg version="1.1" id="Layer_1" xmlns="http://www.w3.org/2000/svg" xmlns:xlink="http://www.w3.org/1999/xlink" x="0px" y="0px"
	 width="75px" height="75px" viewBox="0 0 75 75" style="enable-background:new 0 0 75 75;" xml:space="preserve">
<style type="text/css">
<![CDATA[
	.st0{fill:#B6D4D2;}
	.st1{fill:none;stroke:#354155;stroke-width:1.554;stroke-linecap:round;stroke-linejoin:round;stroke-miterlimit:10;}
	.st2{fill:none;stroke:#354155;stroke-width:1.554;stroke-linecap:round;stroke-miterlimit:10;}
]]>
</style>
<path class="st1" d="M45.3,54.8c5.6-1,11-3.6,15.3-8"/>
<ellipse class="st1" cx="40.4" cy="26.5" rx="20.8" ry="20.8"/>
<path class="st0" d="M44.5,22.4c3.7,3.7,9,4.9,13.7,3.5C57.9,16.5,50.4,9,41,8.6C39.6,13.3,40.8,18.6,44.5,22.4"/>
<path class="st0" d="M23.6,20.3c-0.7,2-1.1,4.1-1.1,6.3c0,9.9,8,17.9,17.9,17.9c2.2,0,4.3-0.4,6.3-1.1c-0.8-5.6-3.3-11-7.7-15.4
	C34.6,23.6,29.2,21,23.6,20.3"/>
<path class="st2" d="M20,6.2C8.8,17.4,8.8,35.6,20,46.8c5.7,5.7,13,8.5,20.4,8.4v6.3"/>
<path class="st2" d="M52,65.8c2.5,0,4.6,2,4.6,4.6v0.3H24.2v-0.3c0-2.5,2-4.6,4.6-4.6h1.6c0-2.4,1.9-4.3,4.3-4.3h11.5
	c2.4,0,4.3,1.9,4.3,4.3H52z"/>
<g>
</g>
<g>
</g>
<g>
</g>
<g>
</g>
<g>
</g>
<g>
</g>
<g>
</g>
<g>
</g>
<g>
</g>
<g>
</g>
<g>
</g>
<g>
</g>
<g>
</g>
<g>
</g>
<g>
</g>
</svg>
