<?xml version="1.0" encoding="utf-8"?>
<!-- Generator: Adobe Illustrator 16.0.0, SVG Export Plug-In . SVG Version: 6.00 Build 0)  -->
<!DOCTYPE svg PUBLIC "-//W3C//DTD SVG 1.1//EN" "http://www.w3.org/Graphics/SVG/1.1/DTD/svg11.dtd">
<svg version="1.1" id="Layer_1" xmlns="http://www.w3.org/2000/svg" xmlns:xlink="http://www.w3.org/1999/xlink" x="0px" y="0px"
	 width="100px" height="50px" viewBox="0 0 100 50" style="enable-background:new 0 0 100 50;" xml:space="preserve">
<style type="text/css">
<![CDATA[
	.st0{fill:#C8CACB;}
]]>
</style>
<path class="st0" d="M48,34.9c0.2-1.4,0.4-2.9,0.6-4.3c0.7-5.7,1.4-11.4,2.2-17c0.1-1.1,0.4-2.2,0.9-3.2c0.3-0.6,1.1-1.3,1.6-1.2
	c0.6,0,1.6,0.7,1.7,1.3c0.7,2.5,1.2,5,1.6,7.6c0.6,4.1,1.1,8.2,1.6,12.4c0,0.2,0.1,0.3,0.4,0.5c0.2-1.2,0.4-2.3,0.6-3.5
	c0.7-4.4,1.3-8.7,2.1-13.1c0.1-0.6,0.2-1.3,0.6-1.8c0.4-0.5,1.1-1.2,1.7-1.2c0.5,0,1.4,0.6,1.5,1.2c0.6,1.9,1,3.8,1.4,5.7
	c0.7,3.1,1.4,6.3,2.1,9.4c0.1,0.4,0.3,0.8,0.7,1.4c0.4-0.6,0.8-1,1-1.4c2.5-3.6,5.5-4.8,9.7-3.9c5.4,1.2,10.8,1.7,16.4,0.8
	c0.9-0.1,1.6,0.1,1.7,1c0.2,1-0.5,1.4-1.4,1.5C91.1,28,85.5,27.5,80,26.3c-3.7-0.8-5.7,0-7.7,3.2c-0.8,1.1-1.4,2.5-3.1,2.3
	c-1.6-0.2-2.3-1.5-2.7-2.8c-0.9-3.4-1.6-6.9-2.4-10.3c-0.1-0.5-0.2-0.9-0.6-1.4c-0.1,0.6-0.3,1.1-0.4,1.7c-0.7,4.8-1.4,9.5-2.2,14.3
	c-0.1,0.7-0.2,1.5-0.6,2c-0.4,0.6-1.1,1.4-1.8,1.5c-1,0.2-1.6-0.7-1.8-1.6c-0.4-1.7-0.8-3.4-1.1-5.1c-0.6-4.4-1.1-8.9-1.7-13.3
	c-0.1-0.6-0.2-1.1-0.7-1.7c-0.1,0.5-0.2,0.9-0.3,1.4c-0.9,6.8-1.7,13.6-2.6,20.3C50.2,37.9,50,39,49.6,40c-0.3,0.7-1.1,1.5-1.8,1.7
	c-1,0.2-1.6-0.7-1.8-1.6c-0.5-3-1.1-6-1.5-9c-0.6-5.2-1.1-10.4-1.7-15.6c-0.1,0-0.3,0-0.4-0.1c-0.2,0.8-0.4,1.6-0.5,2.5
	c-0.6,5-1.1,9.9-1.8,14.9c-0.3,2.1-0.6,4.2-1.1,6.3c-0.3,1.2-0.5,2.7-2.1,2.7c-1.6,0-1.9-1.4-2-2.6c-0.7-5.1-1.4-10.2-2-15.3
	c-0.2-1.9-0.4-3.7-0.7-5.6c-0.1-0.4-0.2-0.8-0.3-1.2c-0.1,0-0.2,0-0.4,0c-0.3,1.5-0.5,3.1-0.8,4.6c-0.7,4-1.4,8-2.1,12
	c-0.1,0.6-0.3,1.3-0.7,1.7c-0.4,0.5-1.1,1.2-1.7,1.2c-0.6,0-1.5-0.6-1.7-1.2c-0.7-2-1.2-4-1.6-6.1c-0.5-2.4-0.9-4.9-1.4-7.4
	c-0.1-0.4-0.2-0.8-0.6-1.2c-0.6,2.1-1.1,4.3-1.7,6.4c-0.3,1.1-0.8,2.2-1.4,3.2c-1.2,1.8-2.9,1.8-4.3,0.2c-0.3-0.4-0.6-0.8-0.9-1.2
	c-2.3-3.4-4.9-4.3-8.8-3.1c-0.4,0.1-0.8,0.2-1.2,0.3c-0.8,0.2-1.6,0-1.7-0.8c0-0.5,0.4-1.4,0.9-1.5c4.3-1.6,9.3-1.6,12.5,3.1
	c0.4,0.5,0.8,1,1.1,1.5c0.2,0,0.3,0,0.5,0c0.5-1.8,1.1-3.6,1.6-5.4c0.5-1.8,1-3.6,1.5-5.4c0.3-0.9,0.9-1.7,2-1.7
	c1.1,0,1.7,0.8,2,1.7c0.7,2.9,1.3,5.7,2,8.6c0.4,1.7,0.7,3.5,1,5.2c0.1,0,0.3,0,0.4,0c0.2-1,0.4-2,0.6-3c0.7-4.3,1.4-8.6,2.1-13
	c0.1-0.9,0.4-1.8,0.7-2.6c0.3-1,0.7-2,2-2c1.3,0,1.7,1.1,2,2.1c0.5,2.2,0.9,4.5,1.2,6.7c0.6,4.8,1.1,9.6,1.6,14.4
	c0,0.2,0.1,0.5,0.5,0.8c0.1-0.6,0.3-1.2,0.4-1.8c0.7-5.9,1.4-11.8,2.2-17.7c0.2-1.7,0.6-3.3,1-5c0.2-1,0.7-1.8,1.8-1.9
	c1.2,0,1.7,1,1.9,1.9c0.6,3.5,1.2,7,1.6,10.6c0.5,3.9,0.8,7.9,1.2,11.9c0.1,0.6,0.3,1.2,0.4,1.8L48,34.9z"/>
<g>
</g>
<g>
</g>
<g>
</g>
<g>
</g>
<g>
</g>
<g>
</g>
<g>
</g>
<g>
</g>
<g>
</g>
<g>
</g>
<g>
</g>
<g>
</g>
<g>
</g>
<g>
</g>
<g>
</g>
</svg>
