<?xml version="1.0" encoding="utf-8"?>
<!-- Generator: Adobe Illustrator 16.0.0, SVG Export Plug-In . SVG Version: 6.00 Build 0)  -->
<!DOCTYPE svg PUBLIC "-//W3C//DTD SVG 1.1//EN" "http://www.w3.org/Graphics/SVG/1.1/DTD/svg11.dtd">
<svg version="1.1" id="Layer_1" xmlns="http://www.w3.org/2000/svg" xmlns:xlink="http://www.w3.org/1999/xlink" x="0px" y="0px"
	 width="75px" height="75px" viewBox="0 0 75 75" style="enable-background:new 0 0 75 75;" xml:space="preserve">
<style type="text/css">
<![CDATA[
	.st0{fill:#F0624A;}
	.st1{fill:none;stroke:#354155;stroke-width:1.461;stroke-linecap:round;stroke-miterlimit:10;}
]]>
</style>
<path class="st1" d="M53.9,31.9c0-9.6-8.1-17.3-17.8-16.6c-8.1,0.6-14.7,7.1-15.4,15.2c-0.4,5.1,1.5,9.8,4.7,13.1
	c1.8,1.9,2.9,4.3,2.9,7v0.1h17.8v-0.1c0-2.5,1-5,2.8-6.8C52,40.7,53.9,36.5,53.9,31.9z"/>
<path class="st1" d="M25.6,30.8c0.5-5.7,5.1-10.2,10.8-10.6c0.3,0,0.6,0,0.8,0c2.9,0,5.6,1.1,7.7,2.9"/>
<line class="st1" x1="28.2" y1="54.1" x2="46.3" y2="54.1"/>
<path class="st1" d="M38.8,66.3h-3.2c-4.1,0-7.4-3.3-7.4-7.4v-1.2h18.1v1.2C46.3,63,42.9,66.3,38.8,66.3z"/>
<path class="st1" d="M34.6,66.5v0.9c0,1.5,1.2,2.7,2.7,2.7c1.5,0,2.7-1.2,2.7-2.7v-0.9"/>
<path class="st0" d="M31.6,46.7c-0.4-1.5-1.1-2.9-2.1-4.2c10.9-0.3,17.4-5.8,20.3-9.1c-0.3,2.8-1.6,5.5-3.7,7.5
	c-1.6,1.6-2.8,3.6-3.4,5.7H31.6z"/>
<line class="st1" x1="37.2" y1="11.4" x2="37.2" y2="7.5"/>
<line class="st1" x1="30.2" y1="12.7" x2="28.9" y2="9.2"/>
<line class="st1" x1="24.1" y1="16.5" x2="21.6" y2="13.5"/>
<line class="st1" x1="19.6" y1="22" x2="16.3" y2="20.1"/>
<line class="st1" x1="44.3" y1="12.7" x2="45.6" y2="9.2"/>
<line class="st1" x1="50.4" y1="16.5" x2="52.9" y2="13.5"/>
<line class="st1" x1="54.9" y1="22" x2="58.2" y2="20.1"/>
<g>
</g>
<g>
</g>
<g>
</g>
<g>
</g>
<g>
</g>
<g>
</g>
<g>
</g>
<g>
</g>
<g>
</g>
<g>
</g>
<g>
</g>
<g>
</g>
<g>
</g>
<g>
</g>
<g>
</g>
</svg>
