<?xml version="1.0" encoding="utf-8"?>
<!-- Generator: Adobe Illustrator 16.0.0, SVG Export Plug-In . SVG Version: 6.00 Build 0)  -->
<!DOCTYPE svg PUBLIC "-//W3C//DTD SVG 1.1//EN" "http://www.w3.org/Graphics/SVG/1.1/DTD/svg11.dtd">
<svg version="1.1" id="Layer_1" xmlns="http://www.w3.org/2000/svg" xmlns:xlink="http://www.w3.org/1999/xlink" x="0px" y="0px"
	 width="75px" height="75px" viewBox="0 0 75 75" style="enable-background:new 0 0 75 75;" xml:space="preserve">
<style type="text/css">
<![CDATA[
	.st0{fill:#F0624A;}
	.st1{fill:none;stroke:#354155;stroke-width:1.47;stroke-linecap:round;stroke-linejoin:round;stroke-miterlimit:10;}
]]>
</style>
<path class="st1" d="M38.9,67.4c0.4,0.2,0.8,0.3,1.2,0.4c5.5,1.9,11.5,0.1,15.2-4.2c5.9-6.8,7.7-14.6,8.2-19.7
	c0.3-3.6,0-7.3-1.3-10.7C57.6,20.6,45.7,22.4,40.1,24c-1.9,0.6-3.9,0.6-5.8,0c-5.6-1.6-17.5-3.4-22.1,9.1c-1.3,3.4-1.6,7.1-1.3,10.8
	c0.5,5.1,2.3,12.9,8.2,19.8c3.8,4.4,9.8,6,15.2,4.2c0.4-0.1,0.7-0.3,1.1-0.4C36.5,66.9,37.8,66.9,38.9,67.4z"/>
<path class="st1" d="M38.5,17.2c0,0,4.5-14.3,20-10.1c0,0,0,5.9-5.2,9.8c-2.4,1.8-5.9,3.1-11,3.2"/>
<path class="st1" d="M33.5,20.1c-0.7-3.4-0.9-8.3,2.2-12.3l3,1.3c0,0-2.1,2.7-2.3,7.1"/>
<path class="st0" d="M59.6,34.1c-2.1-5.7-6-8.4-12-8.4c-2.6,0-5.1,0.6-6.7,1c-1.2,0.4-2.5,0.5-3.7,0.5s-2.5-0.2-3.7-0.5
	c-1.6-0.5-4.1-1-6.7-1c-3.3,0-6,0.9-8.1,2.6c0,0.1,0.6,7.3,19,7.3c6,0,9.9,2.8,12,8.4c1.1,2.9,1.4,6.1,1.1,9.5
	c-0.3,3.3-1.2,7.5-3.3,11.8c2.2-0.6,4.2-1.8,5.8-3.6c5.4-6.2,7-13.3,7.5-18.2C61,40.1,60.7,37,59.6,34.1"/>
<g>
</g>

</svg>
