<?xml version="1.0" encoding="utf-8"?>
<!-- Generator: Adobe Illustrator 18.0.0, SVG Export Plug-In . SVG Version: 6.00 Build 0)  -->
<!DOCTYPE svg PUBLIC "-//W3C//DTD SVG 1.1//EN" "http://www.w3.org/Graphics/SVG/1.1/DTD/svg11.dtd">
<svg version="1.1" id="Layer_1" xmlns="http://www.w3.org/2000/svg" xmlns:xlink="http://www.w3.org/1999/xlink" x="0px" y="0px"
	 viewBox="0 0 282.5 103" enable-background="new 0 0 282.5 103" xml:space="preserve">
<g>
	<g>
		<path fill="#aaaaaa" d="M136.9,80.6c0.6-4.3,1.2-8.7,1.7-13c2.1-17,4.2-34.1,6.5-51.1c0.4-3.3,1.2-6.7,2.7-9.6
			c0.8-1.7,3.3-3.9,4.9-3.8c1.9,0.1,4.7,2.2,5.1,3.9c2,7.5,3.6,15.1,4.7,22.8c1.9,12.3,3.3,24.7,4.9,37.1c0.1,0.5,0.3,0.9,1.3,1.4
			c0.6-3.5,1.2-6.9,1.8-10.4c2.1-13.1,4-26.2,6.2-39.4c0.3-1.8,0.7-3.9,1.8-5.3c1.3-1.6,3.3-3.5,5.1-3.6c1.5-0.1,4.1,1.9,4.6,3.5
			c1.8,5.6,3,11.4,4.2,17.1c2.1,9.4,4.1,18.8,6.3,28.2c0.3,1.2,1.1,2.3,2,4.3c1.4-1.9,2.3-3.1,3.1-4.3c7.4-10.7,16.5-14.5,29.2-11.7
			c16.3,3.5,32.6,5.2,49.2,2.5c2.6-0.4,4.7,0.4,5.2,3.1c0.5,3-1.5,4.2-4.3,4.6c-17,2.5-33.7,1.2-50.4-2.5c-11.1-2.5-17,0-23.3,9.5
			c-2.3,3.4-4.2,7.6-9.4,6.9c-4.9-0.6-7-4.5-8.1-8.5c-2.6-10.2-4.8-20.6-7.1-30.9c-0.3-1.4-0.5-2.8-1.7-4.3c-0.4,1.7-1,3.4-1.3,5.1
			c-2.2,14.3-4.3,28.7-6.5,43c-0.3,2.1-0.7,4.4-1.8,6.1c-1.3,1.9-3.3,4.2-5.3,4.6c-3,0.6-4.8-2.2-5.5-4.9c-1.3-5-2.5-10.2-3.3-15.3
			c-1.9-13.3-3.4-26.6-5.2-39.9c-0.2-1.7-0.7-3.3-2.1-5.1c-0.3,1.4-0.6,2.8-0.8,4.3c-2.6,20.4-5,40.7-7.7,61.1
			c-0.4,3.2-0.9,6.5-2.3,9.3c-1,2.1-3.3,4.5-5.4,5c-3,0.7-4.8-2.2-5.3-4.9c-1.6-9-3.3-17.9-4.4-27c-1.9-15.6-3.3-31.2-5-46.8
			c-0.4-0.1-0.8-0.1-1.2-0.2c-0.5,2.5-1.1,4.9-1.4,7.4c-1.8,14.9-3.4,29.9-5.3,44.8c-0.8,6.4-1.9,12.8-3.2,19
			c-0.8,3.6-1.5,8-6.4,8.1c-4.7,0-5.6-4.2-6.1-7.7c-2.2-15.3-4.1-30.6-6.1-45.9c-0.7-5.6-1.3-11.2-2-16.8c-0.2-1.3-0.7-2.5-1-3.7
			c-0.4,0-0.7,0-1.1,0c-0.8,4.6-1.5,9.3-2.3,13.9c-2.1,12-4.2,24-6.4,36c-0.3,1.8-0.8,3.9-2,5.2c-1.3,1.6-3.4,3.6-5.2,3.6
			c-1.7,0-4.5-1.9-5.1-3.6c-2-5.9-3.5-12.1-4.9-18.2c-1.6-7.3-2.7-14.8-4.1-22.2c-0.2-1.2-0.7-2.4-1.9-3.6
			c-1.7,6.4-3.2,12.8-5.1,19.2c-1,3.3-2.4,6.6-4.3,9.5c-3.6,5.4-8.8,5.5-13,0.5c-0.9-1.1-1.8-2.4-2.6-3.6
			c-7-10.2-14.6-12.9-26.4-9.4c-1.2,0.3-2.3,0.7-3.5,1c-2.3,0.5-4.8,0.1-5-2.5c-0.1-1.5,1.3-4.1,2.6-4.6c12.9-4.8,27.8-4.9,37.6,9.4
			c1.1,1.6,2.3,3.1,3.4,4.6c0.5,0,1,0,1.4-0.1c1.6-5.4,3.3-10.8,4.8-16.3c1.6-5.4,2.9-10.9,4.6-16.2c0.9-2.8,2.7-5.1,5.9-5.2
			c3.3,0,5.2,2.3,6,5.2c2.1,8.6,4,17.2,5.9,25.8c1.1,5.2,2,10.4,3,15.6c0.4,0,0.9,0,1.3,0c0.6-3,1.2-6,1.7-9.1
			c2.1-13,4.2-26,6.3-38.9c0.4-2.6,1.1-5.3,2-7.8c1-2.9,2.1-6.1,6.1-6c3.9,0.1,5.2,3.3,5.9,6.2c1.5,6.7,2.7,13.4,3.6,20.2
			c1.8,14.4,3.3,28.8,4.9,43.2c0.1,0.7,0.4,1.5,1.4,2.3c0.4-1.8,0.9-3.7,1.2-5.5c2.2-17.7,4.2-35.4,6.5-53.2c0.6-5,1.9-10,3-15
			c0.7-2.9,2.2-5.5,5.5-5.6c3.6-0.1,5.2,2.9,5.7,5.8c1.8,10.6,3.5,21.2,4.8,31.8c1.5,11.9,2.4,23.8,3.7,35.6
			c0.2,1.8,0.8,3.5,1.2,5.3C136.2,80.7,136.5,80.6,136.9,80.6z"/>
	</g>
</g>
</svg>
