<?xml version="1.0" encoding="utf-8"?>
<!-- Generator: Adobe Illustrator 18.0.0, SVG Export Plug-In . SVG Version: 6.00 Build 0)  -->
<!DOCTYPE svg PUBLIC "-//W3C//DTD SVG 1.1//EN" "http://www.w3.org/Graphics/SVG/1.1/DTD/svg11.dtd">
<svg version="1.1" id="Layer_1" xmlns="http://www.w3.org/2000/svg" xmlns:xlink="http://www.w3.org/1999/xlink" x="0px" y="0px"
	 viewBox="28 0 956 1000" enable-background="new 28 0 956 1000" xml:space="preserve">
<g>

		<path fill="none" stroke="#FFFFFF" stroke-width="23.3725" stroke-linecap="round" stroke-linejoin="round" stroke-miterlimit="10" d="
		M292.1,746.1C273,673.6,262,589.2,262,499.1c0-269.6,98.5-488.2,220-488.2s220,218.6,220,488.2c0,269.6-98.5,488.2-220,488.2
		c-24.4,0-47.8-8.8-69.7-25"/>

		<path fill="none" stroke="#FFFFFF" stroke-width="23.3725" stroke-linecap="round" stroke-linejoin="round" stroke-miterlimit="10" d="
		M308.4,199c31.6,5.9,64.9,14.7,99.2,26.1"/>

		<path fill="none" stroke="#FFFFFF" stroke-width="23.3725" stroke-linecap="round" stroke-linejoin="round" stroke-miterlimit="10" d="
		M905.7,255c-35.3-61-130.6-78.4-250.1-55.9"/>

		<path fill="none" stroke="#FFFFFF" stroke-width="23.3725" stroke-linecap="round" stroke-linejoin="round" stroke-miterlimit="10" d="
		M482,744.6c24.1-10.4,48.4-22,72.8-34.8c12.4-6.5,24.8-13.3,37.2-20.5c36.7-21.1,71.1-43.7,102.8-67.2"/>

		<path fill="none" stroke="#FFFFFF" stroke-width="23.3725" stroke-linecap="round" stroke-linejoin="round" stroke-miterlimit="10" d="
		M191.1,807.8c-62.7-4.2-110.1-25.4-132.7-64.6C7.1,654.7,98.8,502.7,269,376.4"/>
	<g>

			<ellipse fill="none" stroke="#FFFFFF" stroke-width="23.3725" stroke-linecap="round" stroke-linejoin="round" stroke-miterlimit="10" cx="897.2" cy="382.7" rx="71.2" ry="71"/>
		<path fill="#FFFFFF" d="M904.6,352.3c1.1,3.1,1.8,6.4,1.8,9.9c0,16.4-13.3,29.7-29.7,29.7c-3.5,0-6.8-0.7-10-1.8
			c3.3,13.8,15.7,24.1,30.5,24.1c17.3,0,31.5-14.1,31.5-31.4C928.7,368,918.4,355.6,904.6,352.3z"/>
	</g>
	<g>

			<ellipse fill="none" stroke="#FFFFFF" stroke-width="23.3725" stroke-linecap="round" stroke-linejoin="round" stroke-miterlimit="10" cx="169.1" cy="193.8" rx="71.2" ry="71"/>
		<path fill="#FFFFFF" d="M176.5,163.3c1.1,3.1,1.8,6.4,1.8,9.9c0,16.4-13.3,29.7-29.7,29.7c-3.5,0-6.8-0.7-10-1.8
			c3.3,13.8,15.7,24.1,30.5,24.1c17.3,0,31.5-14.1,31.5-31.4C200.6,179,190.3,166.7,176.5,163.3z"/>
	</g>
	<g>

			<ellipse fill="none" stroke="#FFFFFF" stroke-width="23.3725" stroke-linecap="round" stroke-linejoin="round" stroke-miterlimit="10" cx="333.1" cy="865.6" rx="71.2" ry="71"/>
		<path fill="#FFFFFF" d="M340.5,835.2c1.1,3.1,1.8,6.4,1.8,9.9c0,16.4-13.3,29.7-29.7,29.7c-3.5,0-6.8-0.7-10-1.8
			c3.3,13.8,15.7,24.1,30.5,24.1c17.3,0,31.5-14.1,31.5-31.4C364.6,850.9,354.3,838.5,340.5,835.2z"/>
	</g>
	<path fill="none" stroke="#FFFFFF" stroke-width="23.3725" stroke-linecap="round" stroke-miterlimit="10" d="M340.3,336.3
		c54.6-34.1,152.5-77.9,152.5-77.9c32.8,14.6,66.1,31.5,99.2,50.6c234,134.8,374.4,329.3,313.7,434.3
		c-35.3,61-130.6,78.4-250.1,55.9c-86.4-16.2-185.4-53.3-283.6-109.9C138,554.5-2.4,360,58.3,255"/>
</g>
</svg>
