<?xml version="1.0" encoding="utf-8"?>
<!-- Generator: Adobe Illustrator 18.0.0, SVG Export Plug-In . SVG Version: 6.00 Build 0)  -->
<!DOCTYPE svg PUBLIC "-//W3C//DTD SVG 1.1//EN" "http://www.w3.org/Graphics/SVG/1.1/DTD/svg11.dtd">
<svg version="1.1" id="Layer_1" xmlns="http://www.w3.org/2000/svg" xmlns:xlink="http://www.w3.org/1999/xlink" x="0px" y="0px"
	 viewBox="0 144 1000 856" enable-background="new 0 144 1000 856" xml:space="preserve">
<g>
	<g>
		<g>
			<g>
				<path fill="none" stroke="#354154" stroke-width="20.2214" stroke-linecap="round" stroke-miterlimit="10" d="M533.1,816.4
					l17.3-60.9c15.5-54.9,54.3-100.3,106-124.3l42.7-19.8c25.2-11.7,44.1-33.9,51.7-60.6l20.7-72.9l-1.7-12.2
					c-3.2-24.5,8.2-48.6,29.2-61.7l1-0.6"/>
				<path fill="none" stroke="#354154" stroke-width="20.2214" stroke-linecap="round" stroke-miterlimit="10" d="M743.4,695.2
					c3,0.4,6.1,0.7,9,1c49.2,4.3,97.1-18.1,127.4-57c62.6-80,110.1-30,110.1-30s-51.6,61.8-86.7,122.9
					c-25.1,43.5-65.7,76.7-114.4,88.8c-3,0.7-6.1,1.5-9.2,2.1c-32,6.6-58.6,27.4-73.4,55.5"/>
				<path fill="none" stroke="#354154" stroke-width="20.2214" stroke-linecap="round" stroke-miterlimit="10" d="M943.2,594.3
					l21.3-97.3L902,305.2c0,0-35.9,9-26.6,63.7l28.3,124.8l-19.4,78.9"/>
				<path fill="none" stroke="#354154" stroke-width="20.2214" stroke-linecap="round" stroke-miterlimit="10" d="M879.4,325.4
					l-16.7-51.8c0,0-46.4,17.1-30.8,78.9l26,135.5l-20.7,73.3"/>
				<path fill="none" stroke="#354154" stroke-width="20.2214" stroke-linecap="round" stroke-miterlimit="10" d="M828.8,325.2
					l-2.4,1.8c-21.9,16-32.5,43.1-27.6,69.8l15.1,80.2l-21.4,74.7"/>
			</g>
			
				<path fill="none" stroke="#354154" stroke-width="20.2214" stroke-linecap="round" stroke-linejoin="round" stroke-miterlimit="10" d="
				M554.3,944l146.1,45l25.1-62.6c7.8-19.5-2.1-41.5-21.9-48.6l-170.6-61.4l-4.4,30c-2,13.4,5.5,26.3,18.2,31.1l60.3,22.2"/>
		</g>
		<g>
			<g>
				<path fill="none" stroke="#354154" stroke-width="20.2214" stroke-linecap="round" stroke-miterlimit="10" d="M469,816.4
					l-17.3-60.9c-15.5-54.9-54.3-100.3-106-124.3l-42.7-19.8c-25.2-11.7-44.1-33.9-51.7-60.6L230.7,478l1.7-12.2
					c3.2-24.5-8.2-48.6-29.2-61.7l-1-0.6"/>
				<path fill="none" stroke="#354154" stroke-width="20.2214" stroke-linecap="round" stroke-miterlimit="10" d="M258.6,695.2
					c-3,0.4-6.1,0.7-9,1c-49.2,4.3-97.1-18.1-127.4-57c-62.6-80-110.1-30-110.1-30S63.6,671,98.8,732.1
					c25.1,43.5,65.7,76.7,114.4,88.8c3,0.7,6.1,1.5,9.2,2.1c32,6.6,58.6,27.4,73.4,55.5"/>
				<path fill="none" stroke="#354154" stroke-width="20.2214" stroke-linecap="round" stroke-miterlimit="10" d="M58.8,594.3
					L37.5,497L100,305.2c0,0,35.9,9,26.6,63.7L98.3,493.7l19.4,78.9"/>
				<path fill="none" stroke="#354154" stroke-width="20.2214" stroke-linecap="round" stroke-miterlimit="10" d="M122.6,325.4
					l16.7-51.8c0,0,46.4,17.1,30.8,78.9l-26,135.5l20.7,73.3"/>
				<path fill="none" stroke="#354154" stroke-width="20.2214" stroke-linecap="round" stroke-miterlimit="10" d="M173.3,325.2
					l2.4,1.8c21.9,16,32.5,43.1,27.6,69.8L188.2,477l21.4,74.7"/>
			</g>
			
				<path fill="none" stroke="#354154" stroke-width="20.2214" stroke-linecap="round" stroke-linejoin="round" stroke-miterlimit="10" d="
				M447.7,944l-146.1,45l-25.1-62.6c-7.8-19.5,2.1-41.5,21.9-48.6L469,816.4l4.4,30c2,13.4-5.5,26.3-18.2,31.1l-60.3,22.2"/>
		</g>
	</g>
	<g>
		
			<path fill="none" stroke="#354154" stroke-width="20.2214" stroke-linecap="round" stroke-linejoin="round" stroke-miterlimit="10" d="
			M341.7,466.3"/>
	</g>
	<g>
		
			<line fill="none" stroke="#354154" stroke-width="20.2214" stroke-linecap="round" stroke-linejoin="round" stroke-miterlimit="10" x1="501" y1="371.9" x2="501" y2="293"/>
		
			<line fill="none" stroke="#354154" stroke-width="20.2214" stroke-linecap="round" stroke-linejoin="round" stroke-miterlimit="10" x1="540.5" y1="332.5" x2="461.5" y2="332.5"/>
		
			<path fill="none" stroke="#354154" stroke-width="20.2214" stroke-linecap="round" stroke-linejoin="round" stroke-miterlimit="10" d="
			M605.2,473.8c43.3-32,71.5-83.3,71.5-141.3c0-97.1-78.7-175.7-175.7-175.7s-175.7,78.7-175.7,175.7c0,58.1,28.2,109.3,71.5,141.3"
			/>
		
			<circle fill="none" stroke="#354154" stroke-width="20.2214" stroke-linecap="round" stroke-linejoin="round" stroke-miterlimit="10" cx="501" cy="508.2" r="61"/>
		
			<line fill="none" stroke="#354154" stroke-width="20.2214" stroke-linecap="round" stroke-linejoin="round" stroke-miterlimit="10" x1="482.8" y1="508.2" x2="519.3" y2="508.2"/>
	</g>
</g>
</svg>
