<?xml version="1.0" encoding="utf-8"?>
<!-- Generator: Adobe Illustrator 18.0.0, SVG Export Plug-In . SVG Version: 6.00 Build 0)  -->
<!DOCTYPE svg PUBLIC "-//W3C//DTD SVG 1.1//EN" "http://www.w3.org/Graphics/SVG/1.1/DTD/svg11.dtd">
<svg version="1.1" id="Layer_1" xmlns="http://www.w3.org/2000/svg" xmlns:xlink="http://www.w3.org/1999/xlink" x="0px" y="0px"
	 viewBox="0 120.8 876.9 858.1" enable-background="new 0 120.8 876.9 858.1" xml:space="preserve">
<g>
	<g>
		
			<path fill="none" stroke="#354154" stroke-width="20.4533" stroke-linecap="round" stroke-linejoin="round" stroke-miterlimit="10" d="
			M196.8,969.4H46.3c-19,0-34.5-15.4-34.5-34.5V217.6c0-9.7,7.9-17.6,17.6-17.6h184.2c9.7,0,17.6,7.9,17.6,17.6v717.3
			C231.3,954,215.9,969.4,196.8,969.4z"/>
		
			<circle fill="none" stroke="#354154" stroke-width="20.4533" stroke-linecap="round" stroke-linejoin="round" stroke-miterlimit="10" cx="121.6" cy="315.6" r="38"/>
		
			<line fill="none" stroke="#354154" stroke-width="20.4533" stroke-linecap="round" stroke-linejoin="round" stroke-miterlimit="10" x1="55" y1="708" x2="188.1" y2="708"/>
		
			<line fill="none" stroke="#354154" stroke-width="20.4533" stroke-linecap="round" stroke-linejoin="round" stroke-miterlimit="10" x1="55" y1="781.5" x2="188.1" y2="781.5"/>
		<g>
			<path fill="#B5D3D1" d="M133.2,902.4h-23.4l-5.3,20.2H85.7l26.5-93.6H131l26.5,93.6h-19L133.2,902.4z M113.5,888.1h15.9
				l-7.8-29.7h-0.4L113.5,888.1z"/>
		</g>
	</g>
	<g>
		
			<path fill="none" stroke="#354154" stroke-width="20.4533" stroke-linecap="round" stroke-linejoin="round" stroke-miterlimit="10" d="
			M514.5,898.6H364c-19,0-34.5-15.4-34.5-34.5V146.8c0-9.7,7.9-17.6,17.6-17.6h184.2c9.7,0,17.6,7.9,17.6,17.6v717.3
			C549,883.2,533.5,898.6,514.5,898.6z"/>
		
			<circle fill="none" stroke="#354154" stroke-width="20.4533" stroke-linecap="round" stroke-linejoin="round" stroke-miterlimit="10" cx="439.3" cy="244.8" r="38"/>
		
			<line fill="none" stroke="#354154" stroke-width="20.4533" stroke-linecap="round" stroke-linejoin="round" stroke-miterlimit="10" x1="372.7" y1="637.1" x2="505.8" y2="637.1"/>
		
			<line fill="none" stroke="#354154" stroke-width="20.4533" stroke-linecap="round" stroke-linejoin="round" stroke-miterlimit="10" x1="372.7" y1="710.6" x2="505.8" y2="710.6"/>
		<g>
			<path fill="#B5D3D1" d="M408.5,851.8v-93.6h26.8c9.8,0,17.4,2.1,22.8,6.4c5.4,4.3,8.2,10.6,8.2,19.1c0,4.4-1,8.3-3,11.8
				c-2,3.4-4.9,6-8.8,7.7c5.2,1.1,9.1,3.6,11.7,7.5c2.5,3.9,3.8,8.5,3.8,13.8c0,9-2.6,15.7-7.8,20.3c-5.2,4.6-12.6,6.9-22.3,6.9
				H408.5z M426.7,797.8h9.5c3.9-0.1,6.9-1.2,8.9-3.3c2.1-2.1,3.1-5.1,3.1-9.1c0-4.4-1.1-7.7-3.2-9.8c-2.1-2.1-5.4-3.1-9.6-3.1h-8.7
				V797.8z M426.7,810.3v27.3h13.2c3.9,0,6.9-1.1,8.9-3.3c2-2.2,3-5.5,3-9.8c0-4.5-0.9-7.9-2.8-10.4c-1.8-2.4-4.7-3.7-8.6-3.9h-0.6
				H426.7z"/>
		</g>
	</g>
	<g>
		
			<path fill="none" stroke="#354154" stroke-width="20.4533" stroke-linecap="round" stroke-linejoin="round" stroke-miterlimit="10" d="
			M832.2,969.4H681.7c-19,0-34.5-15.4-34.5-34.5V217.6c0-9.7,7.9-17.6,17.6-17.6h184.2c9.7,0,17.6,7.9,17.6,17.6v717.3
			C866.7,954,851.2,969.4,832.2,969.4z"/>
		
			<circle fill="none" stroke="#354154" stroke-width="20.4533" stroke-linecap="round" stroke-linejoin="round" stroke-miterlimit="10" cx="757" cy="315.6" r="38"/>
		
			<line fill="none" stroke="#354154" stroke-width="20.4533" stroke-linecap="round" stroke-linejoin="round" stroke-miterlimit="10" x1="690.4" y1="708" x2="823.5" y2="708"/>
		
			<line fill="none" stroke="#354154" stroke-width="20.4533" stroke-linecap="round" stroke-linejoin="round" stroke-miterlimit="10" x1="690.4" y1="781.5" x2="823.5" y2="781.5"/>
		<g>
			<path fill="#B5D3D1" d="M788.3,893.5l0.1,0.4c0.2,10-2.4,17.5-7.7,22.5c-5.3,5-12.8,7.5-22.7,7.5c-10.1,0-18.1-3-24-8.9
				c-5.9-5.9-8.9-14.4-8.9-25.3V862c0-10.9,2.9-19.3,8.6-25.3c5.7-6,13.4-9,23.2-9c10.2,0,18.1,2.5,23.6,7.5c5.5,5,8.1,12.5,8,22.6
				l-0.1,0.4h-17.6c0-6-1.1-10.2-3.2-12.6c-2.1-2.4-5.7-3.6-10.6-3.6c-4.5,0-7.9,1.6-10.2,4.9c-2.3,3.3-3.4,8.3-3.4,15.1v27.9
				c0,6.8,1.2,11.9,3.7,15.1c2.4,3.3,6.1,4.9,11.1,4.9c4.5,0,7.7-1.2,9.7-3.6c2-2.4,3-6.6,3-12.7H788.3z"/>
		</g>
	</g>
</g>
</svg>
