<?xml version="1.0" encoding="utf-8"?>
<!-- Generator: Adobe Illustrator 18.0.0, SVG Export Plug-In . SVG Version: 6.00 Build 0)  -->
<!DOCTYPE svg PUBLIC "-//W3C//DTD SVG 1.1//EN" "http://www.w3.org/Graphics/SVG/1.1/DTD/svg11.dtd">
<svg version="1.1" id="Layer_1" xmlns="http://www.w3.org/2000/svg" xmlns:xlink="http://www.w3.org/1999/xlink" x="0px" y="0px"
	 viewBox="0 0 1000 1000" enable-background="new 0 0 1000 1000" xml:space="preserve">
<g>
	<circle fill="#F1624A" cx="500.1" cy="499.9" r="77.9"/>
	
		<circle fill="none" stroke="#354254" stroke-width="23.278" stroke-linecap="round" stroke-miterlimit="10" cx="500.1" cy="499.9" r="486.1"/>
	<path fill="none" stroke="#354254" stroke-width="23.278" stroke-linecap="round" stroke-miterlimit="10" d="M434.6,386.6
		L292.5,140.4C159.4,217.2,85.1,356.6,84.9,499.9h119.8h164.6C369.4,454.8,392.7,410.8,434.6,386.6z"/>
	<path fill="#F1624A" d="M135.3,452.6c12.7-97,63.8-185.6,141.4-245l96.6,167.3c-21.2,21.6-36.7,48.4-44.8,77.7H135.3z"/>
	<path fill="none" stroke="#354254" stroke-width="23.278" stroke-linecap="round" stroke-miterlimit="10" d="M707.6,140.4
		L565.4,386.7c19.3,11.1,36,27.2,47.9,47.8c11.9,20.6,17.4,43.2,17.4,65.4h284.4c0.1-70.6-17.8-142.1-55.6-207.6
		C821.8,226.8,768.8,175.6,707.6,140.4z"/>
	<path fill="#F1624A" d="M671.8,452.6c-4-14.6-9.8-28.6-17.4-41.8c-7.6-13.1-16.8-25.2-27.5-36l96.6-167.3
		c38.4,29.4,70.9,66.2,95.2,108.4c24.3,42.2,40,88.7,46.2,136.6H671.8z"/>
	<path fill="none" stroke="#354254" stroke-width="23.278" stroke-linecap="round" stroke-miterlimit="10" d="M434.7,613.1
		L292.5,859.5c124.2,71.6,282.1,76.9,415.2,0L565.5,613.2C523.5,637.4,473.8,635.7,434.7,613.1z"/>
	<path fill="#F1624A" d="M500.6,867.8c-48.8,0-97.1-9.7-142-28.4l96.6-167.2c14.7,3.8,29.9,5.8,45.2,5.8c15.1,0,30.1-1.9,44.6-5.7
		l96.6,167.2C596.9,858.1,549,867.8,500.6,867.8z"/>
</g>
</svg>
