<?xml version="1.0" encoding="utf-8"?>
<!-- Generator: Adobe Illustrator 18.0.0, SVG Export Plug-In . SVG Version: 6.00 Build 0)  -->
<!DOCTYPE svg PUBLIC "-//W3C//DTD SVG 1.1//EN" "http://www.w3.org/Graphics/SVG/1.1/DTD/svg11.dtd">
<svg version="1.1" id="Layer_1" xmlns="http://www.w3.org/2000/svg" xmlns:xlink="http://www.w3.org/1999/xlink" x="0px" y="0px"
	 viewBox="222 108 540 780" enable-background="new 222 108 540 780" xml:space="preserve">
<g>
	<path fill="none" stroke="#354154" stroke-width="17.9956" stroke-miterlimit="10" d="M666,887.8V734.4c0,0-0.7-56.4,36.3-104.7
		c14.5-18.9,26.7-39.6,34-62.3c22-67.9,35-201-111.2-279.1c0,0-164.8-85.2-290.8,30.4c-23.3,21.4-40.7,48.5-49,79
		c-6.2,22.9-10.2,53.2-5.8,89.8c0.5,4.2,1.3,8.3,2,12.5c1.7,9.9,4.4,37.5-13.1,64l-33.6,48.8c0,0-10,21.3,15,25.9
		c0,0,7.7,0.7,13.6,3.2c3.7,1.6,4.9,6.4,2.2,9.5c-3.7,4.3-7.1,11.4,3.5,17.2c3.2,1.7,4.3,5.6,2.5,8.7c-3.4,5.8-5.3,14.5,9.2,18.8
		c3.1,0.9,5.1,3.9,4.5,7.1c-3.4,17.5-9.4,69.2,38,68.5l39.2-3.8c27.6-2.7,53,16.1,57.9,43.4c3.2,17.9,5.4,42.5,5.4,76.5"/>
	<g>
		<path fill="#B5D3D1" d="M460.7,393.2v109.7h109.7V393.2H460.7z M553.7,486.2h-76.3v-55.8c9.7-3.2,17.3-10.8,20.5-20.5h55.8V486.2z
			"/>
		
			<line fill="none" stroke="#354154" stroke-width="17.9956" stroke-linecap="round" stroke-linejoin="round" stroke-miterlimit="10" x1="597.7" y1="405.2" x2="620.6" y2="405.2"/>
		
			<line fill="none" stroke="#354154" stroke-width="17.9956" stroke-linecap="round" stroke-linejoin="round" stroke-miterlimit="10" x1="597.7" y1="448" x2="620.6" y2="448"/>
		
			<line fill="none" stroke="#354154" stroke-width="17.9956" stroke-linecap="round" stroke-linejoin="round" stroke-miterlimit="10" x1="597.7" y1="490.8" x2="620.6" y2="490.8"/>
		
			<line fill="none" stroke="#354154" stroke-width="17.9956" stroke-linecap="round" stroke-linejoin="round" stroke-miterlimit="10" x1="411.9" y1="405.2" x2="434.8" y2="405.2"/>
		
			<line fill="none" stroke="#354154" stroke-width="17.9956" stroke-linecap="round" stroke-linejoin="round" stroke-miterlimit="10" x1="411.9" y1="448" x2="434.8" y2="448"/>
		
			<line fill="none" stroke="#354154" stroke-width="17.9956" stroke-linecap="round" stroke-linejoin="round" stroke-miterlimit="10" x1="411.9" y1="490.8" x2="434.8" y2="490.8"/>
		
			<line fill="none" stroke="#354154" stroke-width="17.9956" stroke-linecap="round" stroke-linejoin="round" stroke-miterlimit="10" x1="472.8" y1="367.4" x2="472.8" y2="344.5"/>
		
			<line fill="none" stroke="#354154" stroke-width="17.9956" stroke-linecap="round" stroke-linejoin="round" stroke-miterlimit="10" x1="515.6" y1="367.4" x2="515.6" y2="344.5"/>
		
			<line fill="none" stroke="#354154" stroke-width="17.9956" stroke-linecap="round" stroke-linejoin="round" stroke-miterlimit="10" x1="558.4" y1="367.4" x2="558.4" y2="344.5"/>
		
			<line fill="none" stroke="#354154" stroke-width="17.9956" stroke-linecap="round" stroke-linejoin="round" stroke-miterlimit="10" x1="472.8" y1="553.1" x2="472.8" y2="530.3"/>
		
			<line fill="none" stroke="#354154" stroke-width="17.9956" stroke-linecap="round" stroke-linejoin="round" stroke-miterlimit="10" x1="515.6" y1="553.1" x2="515.6" y2="530.3"/>
		
			<line fill="none" stroke="#354154" stroke-width="17.9956" stroke-linecap="round" stroke-linejoin="round" stroke-miterlimit="10" x1="558.4" y1="553.1" x2="558.4" y2="530.3"/>
	</g>
	
		<path fill="none" stroke="#354154" stroke-width="17.9956" stroke-linecap="round" stroke-linejoin="round" stroke-miterlimit="10" d="
		M336.9,456.2c-4.5,47.5,11.4,96.7,47.8,133.1c47.2,47.2,144.3,73.6,215.9,45.7"/>
	<g>
		<polygon fill="#B5D3D1" points="309.4,125.8 329.8,124.5 329.8,217 347,217 347,108 309.4,112.6 		"/>
		<path fill="#B5D3D1" d="M418.7,108.2c-9.7,0-17.6,3.7-23.4,11c-5.7,7.2-8.6,17-8.6,29.2v30.2c0,12.2,2.9,22.1,8.7,29.2
			c5.8,7.2,13.7,10.9,23.4,10.9c9.7,0,17.5-3.7,23.3-10.9c5.7-7.1,8.7-17,8.7-29.2v-30.2c0-12.2-2.9-22-8.7-29.2
			C436.3,111.8,428.5,108.2,418.7,108.2z M403.9,180.5v-34.3c0-7.7,1.3-13.8,4-18.1c2.6-4.2,6.1-6.3,10.8-6.3
			c4.7,0,8.2,2.1,10.8,6.3c2.7,4.4,4,10.4,4,18.1v34.3c0,7.7-1.3,13.9-4,18.2c-2.6,4.2-6.1,6.3-10.8,6.3c-4.7,0-8.2-2.1-10.9-6.3
			C405.3,194.3,403.9,188.2,403.9,180.5z"/>
		<polygon fill="#B5D3D1" points="476.4,125.8 496.9,124.5 496.9,217 514,217 514,108 476.4,112.6 		"/>
		<path fill="#B5D3D1" d="M585.8,108.2c-9.7,0-17.6,3.7-23.4,11c-5.7,7.2-8.6,17-8.6,29.2v30.2c0,12.2,2.9,22.1,8.7,29.2
			c5.8,7.2,13.7,10.9,23.4,10.9c9.7,0,17.5-3.7,23.3-10.9c5.8-7.1,8.7-17,8.7-29.2v-30.2c0-12.2-2.9-22-8.7-29.2
			C603.4,111.8,595.5,108.2,585.8,108.2z M571,180.5v-34.3c0-7.7,1.3-13.8,4-18.1c2.6-4.2,6.1-6.3,10.8-6.3s8.2,2.1,10.8,6.3
			c2.7,4.3,4,10.4,4,18.1v34.3c0,7.7-1.3,13.9-4,18.2c-2.6,4.2-6.1,6.3-10.8,6.3c-4.7,0-8.2-2.1-10.9-6.3
			C572.3,194.3,571,188.2,571,180.5z"/>
		<polygon fill="#B5D3D1" points="643.4,112.6 643.4,125.8 663.9,124.5 663.9,217 681,217 681,108 		"/>
	</g>
</g>
</svg>
