<?xml version="1.0" encoding="utf-8"?>
<!-- Generator: Adobe Illustrator 18.0.0, SVG Export Plug-In . SVG Version: 6.00 Build 0)  -->
<!DOCTYPE svg PUBLIC "-//W3C//DTD SVG 1.1//EN" "http://www.w3.org/Graphics/SVG/1.1/DTD/svg11.dtd">
<svg version="1.1" id="Layer_1" xmlns="http://www.w3.org/2000/svg" xmlns:xlink="http://www.w3.org/1999/xlink" x="0px" y="0px"
	 viewBox="0 0 1000 1000" enable-background="new 0 0 1000 1000" xml:space="preserve">
<g>
	<path fill="none" stroke="#354254" stroke-width="23.7584" stroke-linecap="round" stroke-miterlimit="10" d="M144.6,925.5
		c0-50-62.4-113.3-62.4-113.3s-62.4,63.3-62.4,113.3c0,34.5,27.9,62.4,62.4,62.4l0,0l0,0l0,0l0,0C116.6,987.9,144.6,960,144.6,925.5
		z"/>
	<g>
		<path fill="none" stroke="#354254" stroke-width="23.7584" stroke-linecap="round" stroke-miterlimit="10" d="M628.6,472.8
			l289.2-217.3c59.9-45,72-130,27-189.9l0,0c-45-59.9-130-72-189.9-27L449.7,268l-12-16c-12.2-16.3-35.3-19.5-51.5-7.3l-10.3,7.7
			c-16.3,12.2-19.5,35.3-7.3,51.5l186.9,248.8c12.2,16.3,35.3,19.5,51.5,7.3l10.3-7.7c16.3-12.2,19.5-35.3,7.3-51.5l0,0
			C618,492,619.7,479.5,628.6,472.8z"/>
		<path fill="none" stroke="#354254" stroke-width="23.7584" stroke-linecap="round" stroke-miterlimit="10" d="M521,506.9
			L403,349.8L122.4,560.6c-16.4,12.3-23.9,33.2-19,53.1l0,0c4.6,18.8-2.5,38.6-18,50.3l-3.8,2.9c-16.7,12.6-20.1,36.3-7.5,53l0,0
			c12.6,16.7,36.3,20.1,53,7.5l3.8-2.9c15.5-11.6,36.5-12.9,53.3-3.3l0,0c17.8,10.2,39.9,8.8,56.3-3.5L521,506.9z"/>
		
			<line fill="none" stroke="#354254" stroke-width="23.7584" stroke-linecap="round" stroke-miterlimit="10" x1="449.7" y1="268" x2="508.7" y2="346.6"/>
		<path fill="#F1624A" d="M903.3,96.8c-13.4-17.9-33-29.5-55.2-32.6l0,0c-22.1-3.1-44.2,2.5-62.1,16L600,219.9
			c5.4,0.3,10.8,0.8,16.2,1.5c59.8,8.5,108.9,44.4,136.6,93.1L886.6,214C923.6,186.3,931,133.7,903.3,96.8z"/>
		<path fill="#B6D4D2" d="M260,543.5c30.4,4.3,57.5,16.8,79.9,34.6l108.5-81.5l-55.7-74.2L233,542
			C241.9,541.8,250.9,542.2,260,543.5z"/>
	</g>
</g>
</svg>
