<?xml version="1.0" encoding="utf-8"?>
<!-- Generator: Adobe Illustrator 18.0.0, SVG Export Plug-In . SVG Version: 6.00 Build 0)  -->
<!DOCTYPE svg PUBLIC "-//W3C//DTD SVG 1.1//EN" "http://www.w3.org/Graphics/SVG/1.1/DTD/svg11.dtd">
<svg version="1.1" id="Layer_1" xmlns="http://www.w3.org/2000/svg" xmlns:xlink="http://www.w3.org/1999/xlink" x="0px" y="0px"
	 viewBox="0 0 1228.7 1145.1" enable-background="new 0 0 1228.7 1145.1" xml:space="preserve">
<g>
	<path fill="#F1624A" d="M238.6,396.4c-30.7-195.4,204.1-351,377.9-183.1c0,0-91.9-212-301.5-198.2
		C203.3,22.5,102.9,88.2,51.4,187.6C18.2,251.7-1,339.3,34.4,448.9c12.8,39.6,31.8,76.9,55.4,111c9.1,13.2,18.8,26,29.3,38.1
		c46.2,53.7,134,140,221.9,213.9c0,0,218.6,179,270.8,297.5c0-151.1-64.6-305.2-162.7-418.5C374.8,605.2,258.2,521.1,238.6,396.4z"
		/>
	<path fill="none" stroke="#354254" stroke-width="28.2153" stroke-linecap="round" stroke-miterlimit="10" d="M481,485h118.1
		l51.6,131l36.4-131l36.4-131l51.6,131h38.7h38.7l51.6,131l36.4-131l36.4-131l51.6,131c0.6,0,1.2,0,1.7,0
		c115.4,0,203.8-106.7,177.7-219.1c-5.7-24.6-14.4-48.8-26.3-72.5C1131.3,93.5,1031.6,26.8,920,18.3
		c-209.5-16-303.5,195.1-303.5,195.1S524.6,1.4,315,15.2C203.3,22.5,102.9,88.2,51.4,187.6C18.2,251.7-1,339.3,34.4,448.9
		c12.8,39.6,31.8,76.9,55.4,111c9.1,13.2,18.8,26,29.3,38.1c46.2,53.7,134,140,221.9,213.9c0,0,218.6,179,270.8,297.5
		c53.4-117.9,273.8-294.6,273.8-294.6c66.3-54.6,128.8-112.3,177.6-162.1"/>
</g>
</svg>
