<?xml version="1.0" encoding="utf-8"?>
<!-- Generator: Adobe Illustrator 16.0.0, SVG Export Plug-In . SVG Version: 6.00 Build 0)  -->
<!DOCTYPE svg PUBLIC "-//W3C//DTD SVG 1.1//EN" "http://www.w3.org/Graphics/SVG/1.1/DTD/svg11.dtd">
<svg version="1.1" id="Layer_1" xmlns="http://www.w3.org/2000/svg" xmlns:xlink="http://www.w3.org/1999/xlink" x="0px" y="0px"
	 width="75px" height="75px" viewBox="0 0 75 75" style="enable-background:new 0 0 75 75;" xml:space="preserve">
<style type="text/css">
<![CDATA[
	.st0{fill:#F0624A;}
	.st1{fill:none;stroke:#354155;stroke-width:1.504;stroke-miterlimit:10;}
	.st2{fill:none;stroke:#354155;stroke-width:1.504;stroke-linecap:round;stroke-miterlimit:10;}
]]>
</style>
<rect x="15.1" y="62.4" class="st0" width="17.1" height="8.3"/>
<circle class="st1" cx="23.6" cy="19.1" r="4.1"/>
<line class="st1" x1="23.6" y1="26.8" x2="23.6" y2="33.9"/>
<polyline class="st1" points="17,35.2 17,45.1 30.2,45.1 30.2,35.2 "/>
<path class="st1" d="M11.7,45.1V32.3c0-3,1.6-5.5,4.7-5.5h14.5"/>
<path class="st1" d="M30.9,26.8L30.9,26.8c3,0,4.7,2.5,4.7,5.5v12.8"/>
<path class="st1" d="M15.1,56.7h-3.3L9,50c-0.1-0.4,0.1-0.8,0.5-0.8h28.3c0.4,0,0.7,0.4,0.5,0.8l-2.7,6.7h-3.3"/>
<path class="st1" d="M32.2,70.8V54c0-0.2-0.2-0.4-0.4-0.4H15.5c-0.2,0-0.4,0.2-0.4,0.4v16.7"/>
<polyline class="st2" points="8.9,23.2 8.9,10.6 66.6,10.6 66.6,44.2 41,44.2 "/>
<path class="st2" d="M67.3,10.6h-59c-1.2,0-2.1-0.9-2.1-2.1c0-1.2,1-2.1,2.1-2.1h59c1.2,0,2.1,0.9,2.1,2.1
	C69.4,9.6,68.5,10.6,67.3,10.6z"/>
<g>
</g>
<g>
</g>
<g>
</g>
<g>
</g>
<g>
</g>
<g>
</g>
<g>
</g>
<g>
</g>
<g>
</g>
<g>
</g>
<g>
</g>
<g>
</g>
<g>
</g>
<g>
</g>
<g>
</g>
</svg>
