<?xml version="1.0" encoding="utf-8"?>
<!-- Generator: Adobe Illustrator 18.0.0, SVG Export Plug-In . SVG Version: 6.00 Build 0)  -->
<!DOCTYPE svg PUBLIC "-//W3C//DTD SVG 1.1//EN" "http://www.w3.org/Graphics/SVG/1.1/DTD/svg11.dtd">
<svg version="1.1" id="Layer_1" xmlns="http://www.w3.org/2000/svg" xmlns:xlink="http://www.w3.org/1999/xlink" x="0px" y="0px"
	 viewBox="0 42 1000 958" enable-background="new 0 42 1000 958" xml:space="preserve">
<g>
	
		<rect x="10.8" y="51.8" fill="none" stroke="#354154" stroke-width="20.0491" stroke-miterlimit="10" width="200.9" height="200.9"/>
	<line fill="none" stroke="#354154" stroke-width="20.0491" stroke-miterlimit="10" x1="989" y1="252.8" x2="788" y2="252.8"/>
	<g>
		<polygon fill="#F06249" points="622.5,236.6 511.1,236.6 565.8,51.8 377.2,307.5 488.6,307.1 433.9,491.9 		"/>
	</g>
	<path fill="#B5D3D1" d="M841.7,100.5c31.8,20.4,52.9,56.1,52.9,96.7c0,2.2-0.2,4.5-0.4,6.8h46V100.5H841.7z"/>
	<path fill="#B5D3D1" d="M158.1,100.5c-31.8,20.4-52.9,56.1-52.9,96.7c0,2.2,0.2,4.5,0.4,6.8h-46V100.5H158.1z"/>
	<path fill="none" stroke="#354154" stroke-width="20.0491" stroke-miterlimit="10" d="M499.9,788.4c-159.2,0-288.1-129-288.1-288.1
		V51.8H10.8v448.5c0,270.1,219,489.1,489.1,489.1"/>
	<path fill="none" stroke="#354154" stroke-width="20.0491" stroke-miterlimit="10" d="M499.9,989.4L499.9,989.4
		c270.1,0,489.1-219,489.1-489.1V51.8H788v448.5c0,159.2-129,288.1-288.1,288.1l0,0"/>
</g>
</svg>
