<?xml version="1.0" encoding="utf-8"?>
<!-- Generator: Adobe Illustrator 18.0.0, SVG Export Plug-In . SVG Version: 6.00 Build 0)  -->
<!DOCTYPE svg PUBLIC "-//W3C//DTD SVG 1.1//EN" "http://www.w3.org/Graphics/SVG/1.1/DTD/svg11.dtd">
<svg version="1.1" id="Layer_1" xmlns="http://www.w3.org/2000/svg" xmlns:xlink="http://www.w3.org/1999/xlink" x="0px" y="0px"
	 viewBox="0 76 1000 846" enable-background="new 0 76 1000 846" xml:space="preserve">
<g>
	<polygon fill="#B6D4D2" points="598.9,587.1 520.4,587.1 520.4,508.6 480.5,508.6 480.5,587.1 402,587.1 402,627 480.5,627 
		480.5,705.5 520.4,705.5 520.4,627 598.9,627 	"/>
	<path fill="none" stroke="#354254" stroke-width="22.5995" stroke-linecap="round" stroke-miterlimit="10" d="M959.4,380.1v491.6
		c0,21.4-17.3,38.8-38.7,38.8H80.3c-21.4,0-38.7-17.4-38.7-38.8V380.1"/>
	<path fill="none" stroke="#354254" stroke-width="22.5995" stroke-linecap="round" stroke-miterlimit="10" d="M443.5,409.1
		c-140-1.4-279.8-8.3-418.3-31.7c-8.3-1.4-14.4-8.7-14.4-17.1c0-75.3,0-61.9,0-137.2c0-21.4,17.3-38.8,38.7-38.8h901.9
		c21.4,0,38.7,17.4,38.7,38.8v137.2c0,8.4-6.1,15.7-14.4,17.1c-138.5,23.5-278.3,30.1-418.3,31.7C528.9,409.5,472,409.4,443.5,409.1
		z"/>
	<path fill="none" stroke="#354254" stroke-width="22.5995" stroke-linecap="round" stroke-miterlimit="10" d="M713.9,184.3v-49.9
		c0-25.1-20.3-45.4-45.3-45.4H332.4c-25,0-45.3,20.3-45.3,45.4v49.9"/>
	<path fill="#B6D4D2" d="M81,770.9c0,33.4,0,66.7,0,100.1c279.6,0,559.3,0,838.9,0c0-33.4,0-66.7,0-100.1
		C639.3,793,361.6,793,81,770.9z"/>
</g>
</svg>
