<?xml version="1.0" encoding="utf-8"?>
<!-- Generator: Adobe Illustrator 18.0.0, SVG Export Plug-In . SVG Version: 6.00 Build 0)  -->
<!DOCTYPE svg PUBLIC "-//W3C//DTD SVG 1.1//EN" "http://www.w3.org/Graphics/SVG/1.1/DTD/svg11.dtd">
<svg version="1.1" id="Layer_1" xmlns="http://www.w3.org/2000/svg" xmlns:xlink="http://www.w3.org/1999/xlink" x="0px" y="0px"
	 viewBox="0 129.8 876.9 849.1" enable-background="new 0 129.8 876.9 849.1" xml:space="preserve">
<g>
	<polyline fill="none" stroke="#354154" stroke-width="19.9836" stroke-miterlimit="10" points="405,285.5 499.7,449.5 380.7,655.6 
		142.8,655.6 23.8,449.5 142.8,243.4 332.1,243.4 	"/>
	
		<line fill="none" stroke="#354154" stroke-width="19.9836" stroke-linecap="round" stroke-miterlimit="10" x1="175.4" y1="599.1" x2="348.1" y2="599.1"/>
	<polyline fill="none" stroke="#354154" stroke-width="19.9836" stroke-miterlimit="10" points="688.9,861.7 499.6,861.7 
		380.6,655.6 499.6,449.5 737.6,449.5 856.6,655.6 761.9,819.7 	"/>
	
		<line fill="none" stroke="#354154" stroke-width="19.9836" stroke-linecap="round" stroke-miterlimit="10" x1="532.3" y1="506.1" x2="704.9" y2="506.1"/>
	<line fill="none" stroke="#354154" stroke-width="19.9836" stroke-miterlimit="10" x1="737.6" y1="449.5" x2="801.4" y2="336"/>
	<circle fill="none" stroke="#354154" stroke-width="19.9836" stroke-miterlimit="10" cx="821.2" cy="298.6" r="42.3"/>
	<g>
		<line fill="none" stroke="#354154" stroke-width="19.9836" stroke-miterlimit="10" x1="142.8" y1="655.6" x2="74.5" y2="775.6"/>
		<circle fill="none" stroke="#354154" stroke-width="19.9836" stroke-miterlimit="10" cx="54.7" cy="813" r="42.3"/>
	</g>
	<path fill="none" stroke="#354154" stroke-width="19.9836" stroke-linecap="round" stroke-miterlimit="10" d="M380.7,138.3
		c58,0,105.2,47.2,105.2,105.2"/>
	<circle fill="none" stroke="#354154" stroke-width="19.9836" stroke-miterlimit="10" cx="380.7" cy="243.4" r="48.6"/>
	<path fill="none" stroke="#354154" stroke-width="19.9836" stroke-linecap="round" stroke-miterlimit="10" d="M842.8,861.7
		c0,58-47.2,105.2-105.2,105.2"/>
	<circle fill="none" stroke="#354154" stroke-width="19.9836" stroke-miterlimit="10" cx="737.6" cy="861.7" r="48.6"/>
	<line fill="none" stroke="#354154" stroke-width="19.9836" stroke-miterlimit="10" x1="499.6" y1="861.7" x2="465.9" y2="916"/>
	<circle fill="none" stroke="#354154" stroke-width="19.9836" stroke-miterlimit="10" cx="451.1" cy="939.9" r="28"/>
	<line fill="none" stroke="#354154" stroke-width="19.9836" stroke-miterlimit="10" x1="142.8" y1="243.4" x2="111.4" y2="188.4"/>
	<circle fill="none" stroke="#354154" stroke-width="19.9836" stroke-miterlimit="10" cx="94" cy="166.3" r="28"/>
	<polygon fill="#F06249" points="72.7,449.5 138.2,561.9 123.7,468.8 213.9,315.9 296.9,285.9 167.2,285.9 	"/>
	<path fill="#F06249" d="M673.4,778.6c17.8-13.8,40-22,64.2-22c4.1,0,8,0.3,12,0.7l58.3-101L742.5,544l14.4,93.1L673.4,778.6z"/>
</g>
</svg>
