<?xml version="1.0" encoding="utf-8"?>
<!-- Generator: Adobe Illustrator 18.0.0, SVG Export Plug-In . SVG Version: 6.00 Build 0)  -->
<!DOCTYPE svg PUBLIC "-//W3C//DTD SVG 1.1//EN" "http://www.w3.org/Graphics/SVG/1.1/DTD/svg11.dtd">
<svg version="1.1" id="Layer_1" xmlns="http://www.w3.org/2000/svg" xmlns:xlink="http://www.w3.org/1999/xlink" x="0px" y="0px"
	 viewBox="0 0 1000 1000" enable-background="new 0 0 1000 1000" xml:space="preserve">
<g>
	<g>
		<path fill="none" stroke="#FFFFFF" stroke-width="22.5243" stroke-linecap="round" stroke-miterlimit="10" d="M585.5,275.2
			c0-20,16.2-36.2,36.2-36.2c20,0,36.2,16.2,36.2,36.2"/>
		<circle fill="none" stroke="#FFFFFF" stroke-width="22.5243" stroke-miterlimit="10" cx="621.8" cy="277.4" r="89.7"/>
	</g>
	<g>
		<path fill="none" stroke="#FFFFFF" stroke-width="22.5243" stroke-linecap="round" stroke-miterlimit="10" d="M336.5,275.2
			c0-20,16.2-36.2,36.2-36.2c20,0,36.2,16.2,36.2,36.2"/>
		<circle fill="none" stroke="#FFFFFF" stroke-width="22.5243" stroke-miterlimit="10" cx="372.7" cy="277.4" r="89.7"/>
	</g>
	<path fill="none" stroke="#FFFFFF" stroke-width="22.5243" stroke-miterlimit="10" d="M674.9,205c0,0,85.6-17.3,99.2-182.4
		c0,0-105,76-276.6,76h-0.2c-171.6,0-276.6-76-276.6-76C234.2,187.7,319.8,205,319.8,205"/>
	<path fill="none" stroke="#FFFFFF" stroke-width="22.5243" stroke-miterlimit="10" d="M566.5,347.7c0,0-3.6,65.6-68.8,92.2h-0.4
		c-65.2-26.6-68.8-92.2-68.8-92.2"/>
	<g>
		<path fill="none" stroke="#FFFFFF" stroke-width="22.5243" stroke-linecap="round" stroke-miterlimit="10" d="M380.1,542.8
			c0,0,73.1,193-61.9,319.1c0,0-228.6-175.4-191.2-464.6c1.8-13.9,6.1-27.6,13.3-39.7c18.6-31.6,62.6-65.3,154.1,42.3"/>
		<path fill="#FFFFFF" d="M314.1,791.7c23.2-34.2,33-71.7,35.8-106.4c-139-31.3-176.5-246.4-177.1-250.4
			C162.4,610.6,260.3,736.4,314.1,791.7z"/>
	</g>
	<g>
		<path fill="none" stroke="#FFFFFF" stroke-width="22.5243" stroke-linecap="round" stroke-miterlimit="10" d="M614.4,542.8
			c0,0-73.1,193,61.9,319.1c0,0,228.6-175.4,191.2-464.6c-1.8-13.9-6.1-27.6-13.3-39.7c-18.6-31.6-62.6-65.3-154.1,42.3"/>
		<path fill="#FFFFFF" d="M680.4,791.7c-23.2-34.2-33-71.7-35.8-106.4c139-31.3,176.5-246.4,177.1-250.4
			C832.1,610.6,734.2,736.4,680.4,791.7z"/>
	</g>
	<path fill="none" stroke="#FFFFFF" stroke-width="22.5243" stroke-linecap="round" stroke-miterlimit="10" d="M627.9,800.1
		c0,0-29.3,69.5-130.7,69.5c-101.4,0-130.7-69.5-130.7-69.5"/>
	<g>
		<g>
			<path fill="none" stroke="#FFFFFF" stroke-width="22.5243" stroke-linecap="round" stroke-miterlimit="10" d="M376.1,880.7
				c0,0-38.8,55.5-3.1,107.2"/>
			<path fill="none" stroke="#FFFFFF" stroke-width="22.5243" stroke-linecap="round" stroke-miterlimit="10" d="M417.7,908.7
				c0,0-31.4,28,1.2,65.4"/>
		</g>
		<g>
			<path fill="none" stroke="#FFFFFF" stroke-width="22.5243" stroke-linecap="round" stroke-miterlimit="10" d="M618.4,880.7
				c0,0,38.8,55.5,3.1,107.2"/>
			<path fill="none" stroke="#FFFFFF" stroke-width="22.5243" stroke-linecap="round" stroke-miterlimit="10" d="M576.8,908.7
				c0,0,31.4,28-1.2,65.4"/>
		</g>
	</g>
</g>
</svg>
