<?xml version="1.0" encoding="utf-8"?>
<!-- Generator: Adobe Illustrator 18.0.0, SVG Export Plug-In . SVG Version: 6.00 Build 0)  -->
<!DOCTYPE svg PUBLIC "-//W3C//DTD SVG 1.1//EN" "http://www.w3.org/Graphics/SVG/1.1/DTD/svg11.dtd">
<svg version="1.1" id="Layer_1" xmlns="http://www.w3.org/2000/svg" xmlns:xlink="http://www.w3.org/1999/xlink" x="0px" y="0px"
	 viewBox="222 232 540 522" enable-background="new 222 232 540 522" xml:space="preserve">
<g>
	<g>
		
			<circle fill="none" stroke="#354154" stroke-width="12.3842" stroke-linecap="round" stroke-miterlimit="10" cx="318.7" cy="555.9" r="30.2"/>
		
			<line fill="none" stroke="#354154" stroke-width="12.3842" stroke-linecap="round" stroke-miterlimit="10" x1="318.7" y1="612.2" x2="318.7" y2="664.1"/>
		
			<line fill="none" stroke="#354154" stroke-width="12.3842" stroke-linecap="round" stroke-miterlimit="10" x1="367" y1="746" x2="367" y2="673.7"/>
		
			<line fill="none" stroke="#354154" stroke-width="12.3842" stroke-linecap="round" stroke-miterlimit="10" x1="270.3" y1="673.7" x2="270.3" y2="746"/>
		<path fill="none" stroke="#354154" stroke-width="12.3842" stroke-linecap="round" stroke-miterlimit="10" d="M231.7,746v-93.5
			c0-22.3,11.9-40.3,34.1-40.3l0,0h105.7"/>
		<path fill="none" stroke="#354154" stroke-width="12.3842" stroke-linecap="round" stroke-miterlimit="10" d="M371.5,612.2
			L371.5,612.2c22.3,0,34.1,18,34.1,40.3v51.7"/>
	</g>
	<g>
		
			<circle fill="none" stroke="#354154" stroke-width="12.3842" stroke-linecap="round" stroke-miterlimit="10" cx="492.6" cy="555.9" r="30.2"/>
		
			<line fill="none" stroke="#354154" stroke-width="12.3842" stroke-linecap="round" stroke-miterlimit="10" x1="492.6" y1="612.2" x2="492.6" y2="664.1"/>
		
			<line fill="none" stroke="#354154" stroke-width="12.3842" stroke-linecap="round" stroke-miterlimit="10" x1="541" y1="746" x2="541" y2="673.7"/>
		
			<line fill="none" stroke="#354154" stroke-width="12.3842" stroke-linecap="round" stroke-miterlimit="10" x1="444.3" y1="673.7" x2="444.3" y2="746"/>
		<path fill="none" stroke="#354154" stroke-width="12.3842" stroke-linecap="round" stroke-miterlimit="10" d="M405.7,704.2v-51.7
			c0-22.3,11.9-40.3,34.1-40.3l0,0h105.7"/>
		<path fill="none" stroke="#354154" stroke-width="12.3842" stroke-linecap="round" stroke-miterlimit="10" d="M545.5,612.2
			L545.5,612.2c22.3,0,34.1,18,34.1,40.3v51.7"/>
	</g>
	<g>
		<path fill="none" stroke="#354154" stroke-width="12.3842" stroke-linecap="round" stroke-miterlimit="10" d="M696.8,555.9
			c0,16.7-13.5,30.2-30.2,30.2c-16.7,0-30.2-13.5-30.2-30.2c0-16.7,13.5-30.2,30.2-30.2C683.3,525.6,696.8,539.2,696.8,555.9z"/>
		
			<line fill="none" stroke="#354154" stroke-width="12.3842" stroke-linecap="round" stroke-miterlimit="10" x1="666.6" y1="612.2" x2="666.6" y2="664.1"/>
		
			<line fill="none" stroke="#354154" stroke-width="12.3842" stroke-linecap="round" stroke-miterlimit="10" x1="715" y1="746" x2="715" y2="673.7"/>
		
			<line fill="none" stroke="#354154" stroke-width="12.3842" stroke-linecap="round" stroke-miterlimit="10" x1="618.2" y1="673.7" x2="618.2" y2="746"/>
		<path fill="none" stroke="#354154" stroke-width="12.3842" stroke-linecap="round" stroke-miterlimit="10" d="M579.6,704.2v-51.7
			c0-22.3,11.9-40.3,34.1-40.3l0,0h105.7"/>
		<path fill="none" stroke="#354154" stroke-width="12.3842" stroke-linecap="round" stroke-miterlimit="10" d="M719.5,612.2
			L719.5,612.2c22.3,0,34.1,18,34.1,40.3V746"/>
	</g>
	
		<rect x="311.2" y="270.6" fill="none" stroke="#354154" stroke-width="12.3842" stroke-linecap="round" stroke-miterlimit="10" width="362.8" height="187.8"/>
	<path fill="none" stroke="#354154" stroke-width="12.3842" stroke-linecap="round" stroke-miterlimit="10" d="M678.4,270.6H306.8
		c-7.4,0-13.3-7.2-13.3-16.2l0,0c0-8.9,6-16.2,13.3-16.2h371.6c7.4,0,13.3,7.2,13.3,16.2l0,0C691.8,263.4,685.8,270.6,678.4,270.6z"
		/>
	
		<line fill="none" stroke="#354154" stroke-width="12.3842" stroke-linecap="round" stroke-miterlimit="10" x1="506.7" y1="458.4" x2="506.7" y2="491.8"/>
	
		<line fill="none" stroke="#354154" stroke-width="12.3842" stroke-linecap="round" stroke-miterlimit="10" x1="478.5" y1="491.8" x2="478.5" y2="458.4"/>
	
		<line fill="none" stroke="#354154" stroke-width="12.3842" stroke-linecap="round" stroke-miterlimit="10" x1="270.3" y1="746" x2="715" y2="746"/>
	<polyline fill="none" stroke="#354154" stroke-width="12.3842" stroke-linecap="round" stroke-miterlimit="10" points="374.3,402 
		439.3,352.2 470.1,383.5 522.3,342.7 548,369.3 611,322.1 	"/>
</g>
</svg>
