<?xml version="1.0" encoding="utf-8"?>
<!-- Generator: Adobe Illustrator 18.0.0, SVG Export Plug-In . SVG Version: 6.00 Build 0)  -->
<!DOCTYPE svg PUBLIC "-//W3C//DTD SVG 1.1//EN" "http://www.w3.org/Graphics/SVG/1.1/DTD/svg11.dtd">
<svg version="1.1" id="Layer_1" xmlns="http://www.w3.org/2000/svg" xmlns:xlink="http://www.w3.org/1999/xlink" x="0px" y="0px"
	 viewBox="0 0 1000 1000" enable-background="new 0 0 1000 1000" xml:space="preserve">
<g>
	<path fill="none" stroke="#354254" stroke-width="23.1594" stroke-linecap="round" stroke-miterlimit="10" d="M848.7,431.7
		c0-230.7-187-417.7-417.7-417.7c-230.7,0-417.7,187-417.7,417.7c0,230.7,187,417.7,417.7,417.7
		C661.6,849.4,848.7,662.4,848.7,431.7z"/>
	<path fill="none" stroke="#354254" stroke-width="23.1594" stroke-linecap="round" stroke-miterlimit="10" d="M818.6,741.2
		l152.5,152.4c21.6,21.6,21.6,56.6,0,78.2l0,0c-21.6,21.6-56.6,21.6-78.2,0L740.4,819.4"/>
	<path fill="none" stroke="#354254" stroke-width="23.1594" stroke-linecap="round" stroke-miterlimit="10" d="M604.2,892.9
		C737.9,844.7,843.9,738.7,892.1,605"/>
	<path fill="none" stroke="#354254" stroke-width="23.1594" stroke-linecap="round" stroke-miterlimit="10" d="M452.2,329.9
		c55.2,15.1,114.4,12.8,171-11.6c56.1-24.2,63.5-72.2,63.5-72.2l0,0c7.4-29-12.4-55.6-38.5-51.6c-41.3,6.2-101.1,9.8-161.5-5.6
		c-60.3-15.4-111.1-47.1-144.5-72.4c-21.1-16-51.1-2.1-58.5,26.9l0,0c0,0-16.5,45.7,21.2,93.8c38,48.5,88.9,78.9,144.6,92
		L452.2,329.9z"/>
	<path fill="none" stroke="#354254" stroke-width="23.1594" stroke-linecap="round" stroke-miterlimit="10" d="M348.9,497.1
		c-4.9-51.3-25.7-100.4-64.4-140.3c-38.3-39.5-81.1-30.4-81.1-30.4l0,0c-26.8,3-42.8,28.2-31.2,48.9c18.4,32.8,40.5,82,46.8,137.8
		c6.3,55.7-4.2,108.6-14.8,144.8c-6.7,22.8,14.5,43.7,41.3,40.7l0,0c0,0,43.7-0.7,72.2-47.8c28.7-47.5,38-100,31.3-151.2
		L348.9,497.1z"/>
	<path fill="none" stroke="#354254" stroke-width="23.1594" stroke-linecap="round" stroke-miterlimit="10" d="M630.8,581.4
		c44.8-8.1,86.4-30,118.6-66.8c32-36.6,20.8-73.5,20.8-73.5h0c-4.6-23.3-27.9-35.6-45.3-23.8c-27.5,18.6-69.2,41.6-117.7,51.2
		c-48.5,9.6-95.8,4.3-128.3-2.4c-20.6-4.2-37.4,16-32.8,39.3l0,0c0,0,3.8,38.4,47.3,60c43.9,21.8,90.7,26.1,135.2,16.5L630.8,581.4z
		"/>
	<path fill="none" stroke="#354254" stroke-width="23.1594" stroke-linecap="round" stroke-miterlimit="10" d="M556,525.7
		c46.4,7.8,90.8-1.1,128.2-26"/>
	<path fill="#B6D4D2" d="M466.3,231.2c-57.1-16.1-105.7-44.4-139.7-68.6c-1,7.3-1.2,25.7,14.8,46.1c29.8,38.1,70.9,64.2,118.8,75.5
		l4.2,1.1c9.8,2.7,19.6,4.6,29.5,5.9C479.9,274.2,470.3,253.7,466.3,231.2z"/>
	<path fill="#B6D4D2" d="M265.5,512c10.8-8.4,22.9-15,36.1-19.4c-5.6-39.5-22.8-75.2-50.3-103.5c-10-10.3-19.8-14.7-28-16.4
		c17.5,34.9,35.8,82.2,41.8,135.2C265.3,509.2,265.3,510.6,265.5,512z"/>
</g>
</svg>
