<?xml version="1.0" encoding="utf-8"?>
<!-- Generator: Adobe Illustrator 18.0.0, SVG Export Plug-In . SVG Version: 6.00 Build 0)  -->
<!DOCTYPE svg PUBLIC "-//W3C//DTD SVG 1.1//EN" "http://www.w3.org/Graphics/SVG/1.1/DTD/svg11.dtd">
<svg version="1.1" id="Layer_1" xmlns="http://www.w3.org/2000/svg" xmlns:xlink="http://www.w3.org/1999/xlink" x="0px" y="0px"
	 viewBox="0 120.8 1000 858.1" enable-background="new 0 120.8 1000 858.1" xml:space="preserve">
<g>
	
		<circle id="XMLID_325_" fill="none" stroke="#354154" stroke-width="22.555" stroke-linecap="round" stroke-linejoin="round" stroke-miterlimit="10" cx="499.5" cy="750.2" r="3.1"/>
	
		<path id="XMLID_324_" fill="none" stroke="#354154" stroke-width="22.555" stroke-linecap="round" stroke-linejoin="round" stroke-miterlimit="10" d="
		M499.5,798.7h154.1c0,0-3.6,39.4,4.1,78c6,29.6,27.7,55.9,60,72.5l0,0c9,4.6,4.8,15.5-6,15.5H499.5H287.3c-10.8,0-15-10.9-6-15.5
		l0,0c32.2-16.5,54-42.8,60-72.5c7.8-38.7,4.1-78,4.1-78H499.5z"/>
	
		<line id="XMLID_323_" fill="none" stroke="#354154" stroke-width="22.555" stroke-linecap="round" stroke-linejoin="round" stroke-miterlimit="10" x1="117.5" y1="687.6" x2="881.4" y2="687.6"/>
	
		<path id="XMLID_322_" fill="none" stroke="#354154" stroke-width="22.555" stroke-linecap="round" stroke-linejoin="round" stroke-miterlimit="10" d="
		M942.9,798.7H56.1c-24.4,0-44.2-19.8-44.2-44.2V178.1c0-24.4,19.8-44.2,44.2-44.2h886.8c24.4,0,44.2,19.8,44.2,44.2v576.5
		C987.1,778.9,967.3,798.7,942.9,798.7z"/>
	<g>
		<g id="XMLID_316_">
			<path id="XMLID_321_" fill="#F06249" d="M183.1,270.7h-44.2c-11.8,0-21.4,9.6-21.4,21.4v44.2c0,11.8,9.6,21.4,21.4,21.4h44.2
				c11.8,0,21.4-9.6,21.4-21.4V292C204.5,280.2,194.9,270.7,183.1,270.7z"/>
			<path id="XMLID_320_" fill="#F06249" d="M351.8,270.7h-43c-12.1,0-21.9,9.8-21.9,21.9v43c0,12.1,9.8,21.9,21.9,21.9h43
				c12.1,0,21.9-9.8,21.9-21.9v-43C373.7,280.5,363.9,270.7,351.8,270.7z"/>
			<path id="XMLID_319_" fill="#F06249" d="M521,270.7h-43c-12.1,0-21.9,9.8-21.9,21.9v43c0,12.1,9.8,21.9,21.9,21.9h43
				c12.1,0,21.9-9.8,21.9-21.9v-43C542.9,280.5,533.1,270.7,521,270.7z"/>
			<path id="XMLID_318_" fill="#F06249" d="M690.2,270.7h-43c-12.1,0-21.9,9.8-21.9,21.9v43c0,12.1,9.8,21.9,21.9,21.9h43
				c12.1,0,21.9-9.8,21.9-21.9v-43C712.2,280.5,702.3,270.7,690.2,270.7z"/>
			<path id="XMLID_317_" fill="#F06249" d="M860,270.7h-44.2c-11.8,0-21.4,9.6-21.4,21.4v44.2c0,11.8,9.6,21.4,21.4,21.4H860
				c11.8,0,21.4-9.6,21.4-21.4V292C881.4,280.2,871.8,270.7,860,270.7z"/>
		</g>
		<g id="XMLID_296_">
			<path id="XMLID_315_" fill="#F06249" d="M183.1,430.8h-44.2c-11.8,0-21.4,9.6-21.4,21.4v44.2c0,11.8,9.6,21.4,21.4,21.4h44.2
				c11.8,0,21.4-9.6,21.4-21.4v-44.2C204.5,440.3,194.9,430.8,183.1,430.8z"/>
			<path id="XMLID_314_" fill="#F06249" d="M351.8,430.8h-43c-12.1,0-21.9,9.8-21.9,21.9v43c0,12.1,9.8,21.9,21.9,21.9h43
				c12.1,0,21.9-9.8,21.9-21.9v-43C373.7,440.6,363.9,430.8,351.8,430.8z"/>
			<path id="XMLID_313_" fill="#F06249" d="M521,430.8h-43c-12.1,0-21.9,9.8-21.9,21.9v43c0,12.1,9.8,21.9,21.9,21.9h43
				c12.1,0,21.9-9.8,21.9-21.9v-43C542.9,440.6,533.1,430.8,521,430.8z"/>
			<path id="XMLID_298_" fill="#F06249" d="M690.2,430.8h-43c-12.1,0-21.9,9.8-21.9,21.9v43c0,12.1,9.8,21.9,21.9,21.9h43
				c12.1,0,21.9-9.8,21.9-21.9v-43C712.2,440.6,702.3,430.8,690.2,430.8z"/>
			<path id="XMLID_297_" fill="#F06249" d="M860,430.8h-44.2c-11.8,0-21.4,9.6-21.4,21.4v44.2c0,11.8,9.6,21.4,21.4,21.4H860
				c11.8,0,21.4-9.6,21.4-21.4v-44.2C881.4,440.3,871.8,430.8,860,430.8z"/>
		</g>
	</g>
	<g id="XMLID_292_">
		
			<path id="XMLID_295_" fill="none" stroke="#354154" stroke-width="22.555" stroke-linecap="round" stroke-linejoin="round" stroke-miterlimit="10" d="
			M417.6,609.4c0,1.9-1.6,3.5-3.5,3.5c-1.9,0-3.5-1.6-3.5-3.5c0-1.9,1.6-3.5,3.5-3.5C416,605.9,417.6,607.5,417.6,609.4z"/>
		
			<path id="XMLID_294_" fill="none" stroke="#354154" stroke-width="22.555" stroke-linecap="round" stroke-linejoin="round" stroke-miterlimit="10" d="
			M503,609.4c0,1.9-1.6,3.5-3.5,3.5c-1.9,0-3.5-1.6-3.5-3.5c0-1.9,1.6-3.5,3.5-3.5C501.4,605.9,503,607.5,503,609.4z"/>
		
			<path id="XMLID_293_" fill="none" stroke="#354154" stroke-width="22.555" stroke-linecap="round" stroke-linejoin="round" stroke-miterlimit="10" d="
			M588.3,609.4c0,1.9-1.6,3.5-3.5,3.5c-1.9,0-3.5-1.6-3.5-3.5c0-1.9,1.6-3.5,3.5-3.5C586.8,605.9,588.3,607.5,588.3,609.4z"/>
	</g>
</g>
</svg>
