<?xml version="1.0" encoding="utf-8"?>
<!-- Generator: Adobe Illustrator 18.0.0, SVG Export Plug-In . SVG Version: 6.00 Build 0)  -->
<!DOCTYPE svg PUBLIC "-//W3C//DTD SVG 1.1//EN" "http://www.w3.org/Graphics/SVG/1.1/DTD/svg11.dtd">
<svg version="1.1" id="Layer_1" xmlns="http://www.w3.org/2000/svg" xmlns:xlink="http://www.w3.org/1999/xlink" x="0px" y="0px"
	 viewBox="0 0 1000 1000" enable-background="new 0 0 1000 1000" xml:space="preserve">
<g id="XMLID_236_">
	
		<path id="XMLID_280_" fill="none" stroke="#354254" stroke-width="22.7708" stroke-linecap="round" stroke-linejoin="round" stroke-miterlimit="10" d="
		M499,405.9L499,405.9c-57.6,0-104.4-46.7-104.4-104.4V148h208.8v153.6C603.4,359.2,556.6,405.9,499,405.9z"/>
	
		<circle id="XMLID_279_" fill="none" stroke="#354254" stroke-width="22.7708" stroke-linecap="round" stroke-linejoin="round" stroke-miterlimit="10" cx="825" cy="831.6" r="55.3"/>
	<circle id="XMLID_278_" fill="#B6D4D2" cx="825" cy="831.6" r="18.9"/>
	
		<line id="XMLID_277_" fill="none" stroke="#354254" stroke-width="22.7708" stroke-linecap="round" stroke-linejoin="round" stroke-miterlimit="10" x1="610.4" y1="425.5" x2="755.1" y2="756.3"/>
	
		<line id="XMLID_276_" fill="none" stroke="#354254" stroke-width="22.7708" stroke-linecap="round" stroke-linejoin="round" stroke-miterlimit="10" x1="818.3" y1="728.5" x2="640" y2="321.6"/>
	<g id="XMLID_251_">
		
			<path id="XMLID_275_" fill="none" stroke="#354254" stroke-width="22.7708" stroke-linecap="round" stroke-linejoin="round" stroke-miterlimit="10" d="
			M832.2,925.3l4.3,9.4c6.9,14.8,24.3,21.4,39.2,14.9l0,0c15.4-6.7,22.3-24.8,15.2-40.1l-3.8-8.2"/>
		
			<line id="XMLID_252_" fill="none" stroke="#354254" stroke-width="22.7708" stroke-linecap="round" stroke-linejoin="round" stroke-miterlimit="10" x1="880.6" y1="957.7" x2="893.7" y2="987"/>
	</g>
	
		<circle id="XMLID_250_" fill="none" stroke="#354254" stroke-width="22.7708" stroke-linecap="round" stroke-linejoin="round" stroke-miterlimit="10" cx="173" cy="831.6" r="55.3"/>
	<circle id="XMLID_249_" fill="#B6D4D2" cx="173" cy="831.6" r="18.9"/>
	<g id="XMLID_243_">
		<g id="XMLID_244_">
			<g id="XMLID_245_">
				
					<line id="XMLID_248_" fill="none" stroke="#354254" stroke-width="22.7708" stroke-linecap="round" stroke-linejoin="round" x1="417.7" y1="479" x2="417.7" y2="479"/>
				
					<path id="XMLID_247_" fill="none" stroke="#354254" stroke-width="22.7708" stroke-linecap="round" stroke-linejoin="round" stroke-dasharray="0,55.4247" d="
					M470.9,497c9.1,1.5,18.5,2.3,28.1,2.3c19.4,0,38-3.2,55.4-9.1"/>
				
					<line id="XMLID_246_" fill="none" stroke="#354254" stroke-width="22.7708" stroke-linecap="round" stroke-linejoin="round" x1="580.2" y1="479" x2="580.2" y2="479"/>
			</g>
		</g>
	</g>
	
		<line id="XMLID_242_" fill="none" stroke="#354254" stroke-width="22.7708" stroke-linecap="round" stroke-linejoin="round" stroke-miterlimit="10" x1="387.6" y1="425.5" x2="242.9" y2="756.3"/>
	
		<line id="XMLID_241_" fill="none" stroke="#354254" stroke-width="22.7708" stroke-linecap="round" stroke-linejoin="round" stroke-miterlimit="10" x1="179.7" y1="728.5" x2="357.9" y2="321.6"/>
	<g id="XMLID_239_">
		
			<line id="XMLID_240_" fill="none" stroke="#354254" stroke-width="22.7708" stroke-linecap="round" stroke-linejoin="round" stroke-miterlimit="10" x1="150.5" y1="882.1" x2="104.3" y2="987"/>
	</g>
	
		<path id="XMLID_238_" fill="none" stroke="#354254" stroke-width="22.7708" stroke-linecap="round" stroke-linejoin="round" stroke-miterlimit="10" d="
		M499,11L499,11c-19.7,0-35.7,16-35.7,35.7V148h71.4V46.7C534.7,27,518.7,11,499,11z"/>
	<path id="XMLID_237_" fill="#F1624A" d="M557.1,299V194.3H440.9v53.6C504.9,251.5,539.8,278.7,557.1,299z"/>
</g>
</svg>
