<?xml version="1.0" encoding="utf-8"?>
<!-- Generator: Adobe Illustrator 18.0.0, SVG Export Plug-In . SVG Version: 6.00 Build 0)  -->
<!DOCTYPE svg PUBLIC "-//W3C//DTD SVG 1.1//EN" "http://www.w3.org/Graphics/SVG/1.1/DTD/svg11.dtd">
<svg version="1.1" id="Layer_1" xmlns="http://www.w3.org/2000/svg" xmlns:xlink="http://www.w3.org/1999/xlink" x="0px" y="0px"
	 viewBox="0 22 1000 950" enable-background="new 0 22 1000 950" xml:space="preserve">
<g>
	
		<path fill="none" stroke="#354254" stroke-width="17.5649" stroke-linecap="round" stroke-linejoin="round" stroke-miterlimit="10" d="
		M614.3,795.2c3.7-32.1-15.3-62.9-46.1-73.4l0,0l49.6-123l48.8,54.4c26.8,29.9,34.6,72.3,20,109.8l-46.2,94.7
		c-23.2,47.7,10.2,105,63.3,105.5c0.4,0,0.8,0,1.2,0h195.7c44.3,0,82.9-33.2,86.4-77.3c3.4-42.2-24.3-78.3-62.5-88.4
		c0.3-2.2,0.5-4.3,0.5-6.5c0-28.6-23.2-51.8-51.8-51.8c-4.6,0-9,0.7-13.3,1.8c0-0.3,0-0.5,0-0.8c0-28.1-22.7-50.9-50.8-50.9
		c-15.4,0-29.2,6.9-38.5,17.8"/>
	<path fill="none" stroke="#354254" stroke-width="17.5649" stroke-miterlimit="10" d="M598.1,171.1c0,0-35.9,15.5-99.1,15.5
		s-99.1-15.5-99.1-15.5"/>
	<path fill="none" stroke="#354254" stroke-width="17.5649" stroke-miterlimit="10" d="M562.9,367.6c0-35.1-28.5-63.7-63.7-63.7
		c-35.1,0-63.7,28.5-63.7,63.7c0,35.1,28.5,63.7,63.7,63.7C534.3,431.3,562.9,402.9,562.9,367.6z"/>
	<g>
		
			<path fill="none" stroke="#354254" stroke-width="17.5649" stroke-linecap="round" stroke-linejoin="round" stroke-miterlimit="10" d="
			M456.2,763.4c-0.8,48.6,11.5,113.9,43,199.8c31.5-85.9,43.7-151.2,43-199.8"/>
	</g>
	<path fill="#F1624A" d="M502,336.1c4,4.3,6.7,10.2,6.7,16.7c0,13.4-11,24.4-24.4,24.4c-6.5,0-12.3-2.6-16.7-6.7
		c1.6,16.2,14.9,28.9,31.5,28.9c17.5,0,31.7-14.2,31.7-31.7C530.9,351,518.2,337.6,502,336.1z"/>
	
		<path fill="none" stroke="#354254" stroke-width="17.5649" stroke-linecap="round" stroke-linejoin="round" stroke-miterlimit="10" d="
		M383.9,795.2c-3.7-32.1,15.3-62.9,46.1-73.4l0,0l-49.6-123l-48.8,54.4c-26.8,29.9-34.6,72.3-20,109.8l46.2,94.7
		c23.2,47.7-10.2,105-63.3,105.5c-0.4,0-0.8,0-1.2,0H97.5c-44.3,0-82.9-33.2-86.4-77.3c-3.4-42.2,24.3-78.3,62.5-88.4
		c-0.3-2.2-0.5-4.3-0.5-6.5c0-28.6,23.2-51.8,51.8-51.8c4.6,0,9,0.7,13.3,1.8c0-0.3,0-0.5,0-0.8c0-28.1,22.7-50.9,50.8-50.9
		c15.4,0,29.2,6.9,38.5,17.8"/>
	<path fill="none" stroke="#354254" stroke-width="17.5649" stroke-miterlimit="10" d="M380.3,598.8
		C244.7,268,499.2,37.3,499.2,37.3S753.6,268,618,598.8"/>
	<path fill="none" stroke="#354254" stroke-width="17.5649" stroke-miterlimit="10" d="M435.4,367.6c0-35.1,28.5-63.7,63.7-63.7
		c35.1,0,63.7,28.5,63.7,63.7c0,35.1-28.5,63.7-63.7,63.7C463.9,431.3,435.4,402.9,435.4,367.6z"/>
	<g>
		
			<path fill="none" stroke="#354254" stroke-width="17.5649" stroke-linecap="round" stroke-linejoin="round" stroke-miterlimit="10" d="
			M542.1,763.4c0.8,48.6-11.5,113.9-43,199.8c-31.5-85.9-43.7-151.2-43-199.8"/>
	</g>
</g>
</svg>
