<?xml version="1.0" encoding="utf-8"?>
<!-- Generator: Adobe Illustrator 18.0.0, SVG Export Plug-In . SVG Version: 6.00 Build 0)  -->
<!DOCTYPE svg PUBLIC "-//W3C//DTD SVG 1.1//EN" "http://www.w3.org/Graphics/SVG/1.1/DTD/svg11.dtd">
<svg version="1.1" id="Layer_1" xmlns="http://www.w3.org/2000/svg" xmlns:xlink="http://www.w3.org/1999/xlink" x="0px" y="0px"
	 viewBox="0 0 765.9 845.4" enable-background="new 0 0 765.9 845.4" xml:space="preserve">
<g>
	<path fill="#F1624A" d="M710,542l-95.2-95.2l0,0C469.4,592.1,301,531.1,301,531.1c59,44.6,132.5,71,212.1,71
		C586,602.1,653.8,580,710,542z"/>
	<path fill="none" stroke="#354254" stroke-width="19.5538" stroke-linecap="round" stroke-miterlimit="10" d="M298.7,533.7
		c19.2-19.1,19.2-50.2,0-69.3c-19.1-19.1-50.2-19.1-69.3,0c-19.1,19.1-19.1,50.2,0,69.3C248.5,552.8,279.6,552.8,298.7,533.7z"/>
	<path fill="#F1624A" d="M279,513.9c8.2-8.3,8.2-21.6,0-29.9c-8.2-8.2-21.6-8.2-29.9,0c-8.2,8.2-8.2,21.6,0,29.9
		C257.3,522.2,270.7,522.2,279,513.9z"/>
	<path fill="none" stroke="#354254" stroke-width="19.5538" stroke-linecap="round" stroke-miterlimit="10" d="M170.7,661.7
		c19.1-19.1,19.1-50.2,0-69.3c-19.1-19.1-50.2-19.1-69.3,0c-19.1,19.1-19.1,50.2,0,69.3C120.5,680.8,151.5,680.8,170.7,661.7z"/>
	<path fill="#F1624A" d="M150.9,641.9c8.2-8.2,8.2-21.6,0-29.9c-8.3-8.2-21.6-8.2-29.9,0c-8.2,8.2-8.2,21.6,0,29.9
		C129.3,650.2,142.7,650.2,150.9,641.9z"/>
	<path fill="none" stroke="#354254" stroke-width="19.5538" stroke-linecap="round" stroke-miterlimit="10" d="M301,531.1
		c59,44.6,132.5,71,212.1,71C586,602.1,653.8,580,710,542L221,53c-38,56.2-60.1,124-60.1,196.9c0,79.6,26.5,153.1,71,212.1"/>
	<line fill="none" stroke="#354254" stroke-width="19.5538" stroke-miterlimit="10" x1="465.5" y1="297.5" x2="495.2" y2="267.8"/>
	<path fill="none" stroke="#354254" stroke-width="19.5538" stroke-miterlimit="10" d="M532.9,267.8c10.4-10.4,10.4-27.3,0-37.7
		c-10.4-10.4-27.3-10.4-37.7,0c-10.4,10.4-10.4,27.3,0,37.7C505.6,278.3,522.5,278.3,532.9,267.8z"/>
	<g id="XMLID_1280_">
		<path id="XMLID_1283_" fill="none" stroke="#354254" stroke-width="19.5538" stroke-linecap="round" stroke-miterlimit="10" d="
			M514.6,154.7c23.9-0.1,48,9,66.3,27.3c18.3,18.3,27.5,42.3,27.5,66.3"/>
		<path id="XMLID_1282_" fill="none" stroke="#354254" stroke-width="19.5538" stroke-linecap="round" stroke-miterlimit="10" d="
			M514.6,84.3c41.9,0,83.9,16,116,48.1c32.1,32.1,48.1,74.1,48.1,116"/>
		<path id="XMLID_1281_" fill="none" stroke="#354254" stroke-width="19.5538" stroke-linecap="round" stroke-miterlimit="10" d="
			M514.6,10.1c60.9,0.1,122,23.4,168.5,69.9c46.5,46.5,69.8,107.6,69.9,168.5"/>
	</g>
	<path fill="none" stroke="#354254" stroke-width="19.5538" stroke-linecap="round" stroke-miterlimit="10" d="M54.7,750h408.6
		c23.8,0,43.2,19.3,43.2,43.2v41.9h-495v-41.9C11.5,769.3,30.8,750,54.7,750z"/>
	
		<line fill="none" stroke="#354254" stroke-width="19.5538" stroke-linecap="round" stroke-miterlimit="10" x1="229.4" y1="533.7" x2="172" y2="591"/>
	
		<line fill="none" stroke="#354254" stroke-width="19.5538" stroke-linecap="round" stroke-miterlimit="10" x1="170.7" y1="661.7" x2="259" y2="750"/>
</g>
</svg>
