<?xml version="1.0" encoding="utf-8"?>
<!-- Generator: Adobe Illustrator 18.0.0, SVG Export Plug-In . SVG Version: 6.00 Build 0)  -->
<!DOCTYPE svg PUBLIC "-//W3C//DTD SVG 1.1//EN" "http://www.w3.org/Graphics/SVG/1.1/DTD/svg11.dtd">
<svg version="1.1" id="Layer_1" xmlns="http://www.w3.org/2000/svg" xmlns:xlink="http://www.w3.org/1999/xlink" x="0px" y="0px"
	 viewBox="0 0 1000 1000" enable-background="new 0 0 1000 1000" xml:space="preserve">
<g>
	<path fill="none" stroke="#354154" stroke-width="23.6529" stroke-linecap="round" stroke-miterlimit="10" d="M640.6,862.7
		c-137.8,39.5-292.3,5-400.9-103.5C131.2,650.6,96.7,496,136.2,358.2"/>
	<path fill="none" stroke="#354154" stroke-width="23.6529" stroke-linecap="round" stroke-miterlimit="10" d="M189.3,244.1
		c14.5-21.6,31.3-42.2,50.4-61.3c159.1-159.1,417.1-159.1,576.3,0C975.1,342,975.1,600,816,759.1c-19.1,19.1-39.7,35.9-61.3,50.5"/>
	<path fill="none" stroke="#354154" stroke-width="23.6529" stroke-linecap="round" stroke-miterlimit="10" d="M883.5,670.2
		c92.2,140.2,128.9,254.4,85.3,298.1c-72.9,72.9-342-78.1-601-337.1S-42.3,103,30.6,30.1c43.7-43.7,157.8-7,298,85.2"/>
	<path fill="none" stroke="#354154" stroke-width="23.6529" stroke-linecap="round" stroke-miterlimit="10" d="M817.5,835.2
		C741.7,817.8,592,710,440.4,558.4c-151.5-151.5-259.3-301.3-276.7-377"/>
	<path fill="#F06249" d="M778.1,220.8C672.6,115.3,516.5,90.6,387.2,146.4c0,0,29.5,183.1,134.9,163.9c0.8-0.1,1.6-0.3,2.5-0.4
		c47.8-8.1,91.7,30.4,88.9,78.8c0,0.5-0.1,0.9-0.1,1.4c-2.3,34.9,23.1,65.6,57.7,70.3c13.8,1.9,36.1-1.4,58-9.1
		c22.9-8,48.1,3.9,55.1,27.1c0.2,0.6,0.4,1.3,0.6,2c16.8,54.6,97.5,41.1,96.5-16C879.8,376,845.4,288.1,778.1,220.8z"/>
	<path fill="#F06249" d="M756.6,599.4c-10,15.9-29.6,23.6-45.6,16.3c-18.2-8.2-24.7-32.2-12-52.5c12.7-20.2,37.1-24.8,52.5-12
		C764.9,562.5,766.5,583.5,756.6,599.4z"/>
	<path fill="#F06249" d="M764.8,691.4c-4.4,7-13.1,10.4-20.2,7.2c-8.1-3.7-10.9-14.3-5.3-23.2c5.6-9,16.4-11,23.2-5.3
		C768.4,675.1,769.2,684.4,764.8,691.4z"/>
	<path fill="#F06249" d="M842.6,591.8c-6.4,10.2-19,15.1-29.2,10.5c-11.7-5.3-15.8-20.7-7.7-33.7c8.1-13,23.8-15.9,33.7-7.7
		C848,568.2,849,581.6,842.6,591.8z"/>
</g>
</svg>
