<?xml version="1.0" encoding="utf-8"?>
<!-- Generator: Adobe Illustrator 18.0.0, SVG Export Plug-In . SVG Version: 6.00 Build 0)  -->
<!DOCTYPE svg PUBLIC "-//W3C//DTD SVG 1.1//EN" "http://www.w3.org/Graphics/SVG/1.1/DTD/svg11.dtd">
<svg version="1.1" id="Layer_1" xmlns="http://www.w3.org/2000/svg" xmlns:xlink="http://www.w3.org/1999/xlink" x="0px" y="0px"
	 viewBox="0 0 1000 1000" enable-background="new 0 0 1000 1000" xml:space="preserve">
<g>
	<g>
		<path fill="none" stroke="#354254" stroke-width="23.1761" stroke-linecap="round" stroke-miterlimit="10" d="M213.7,307.4
			c53.3-22.1,113.2-22.1,166.5,0c0,141.7,0,283.4,0,425.1c-55.5,0-111,0-166.5,0C213.7,590.8,213.7,449.1,213.7,307.4z"/>
		<path fill="#B6D4D2" d="M297,337.2c-12.5,0-24.8,1.3-36.9,4v127.1h73.8V341.2C321.8,338.5,309.5,337.2,297,337.2z"/>
		<path fill="none" stroke="#354254" stroke-width="23.1761" stroke-linecap="round" stroke-miterlimit="10" d="M341.1,295.4
			c0-37.8,0-75.7,0-113.5c-28.3-11.7-60.1-11.7-88.3,0c0,37.8,0,75.7,0,113.5C281.9,289.3,312,289.3,341.1,295.4z"/>
		
			<line fill="none" stroke="#354254" stroke-width="23.1761" stroke-linecap="round" stroke-miterlimit="10" x1="297" y1="173.1" x2="297" y2="10.7"/>
		<path fill="none" stroke="#354254" stroke-width="23.1761" stroke-linecap="round" stroke-miterlimit="10" d="M193.2,732.5h207.5
			c15.3,0,27.7,12.4,27.7,27.7l0,0c0,15.3-12.4,27.7-27.7,27.7H193.2c-15.3,0-27.7-12.4-27.7-27.7v0
			C165.5,744.9,177.9,732.5,193.2,732.5z"/>
		<path fill="none" stroke="#354254" stroke-width="23.1761" stroke-linecap="round" stroke-miterlimit="10" d="M248.7,935.6h96.6
			c15.3,0,27.7,12.4,27.7,27.7v0c0,15.3-12.4,27.7-27.7,27.7h-96.6c-15.3,0-27.7-12.4-27.7-27.7l0,0
			C220.9,948,233.3,935.6,248.7,935.6z"/>
		
			<rect x="255.5" y="788" fill="none" stroke="#354254" stroke-width="23.1761" stroke-linecap="round" stroke-miterlimit="10" width="82.9" height="147.6"/>
		
			<line fill="none" stroke="#354254" stroke-width="23.1761" stroke-linecap="round" stroke-miterlimit="10" x1="380.2" y1="667.9" x2="328.7" y2="667.9"/>
		
			<line fill="none" stroke="#354254" stroke-width="23.1761" stroke-linecap="round" stroke-miterlimit="10" x1="380.2" y1="602.5" x2="328.7" y2="602.5"/>
		
			<line fill="none" stroke="#354254" stroke-width="23.1761" stroke-linecap="round" stroke-miterlimit="10" x1="380.2" y1="537.1" x2="328.7" y2="537.1"/>
	</g>
	<path fill="none" stroke="#354254" stroke-width="23.1761" stroke-linecap="round" stroke-miterlimit="10" d="M604.5,376.9
		c53.3-22.1,113.2-22.1,166.5,0c0,141.7,0,237,0,378.7c-55.5,0-111,0-166.5,0C604.5,613.9,604.5,518.6,604.5,376.9z"/>
	
		<line fill="none" stroke="#354254" stroke-width="23.1761" stroke-linecap="round" stroke-miterlimit="10" x1="687.7" y1="242.6" x2="687.7" y2="10.7"/>
	<path fill="none" stroke="#354254" stroke-width="23.1761" stroke-linecap="round" stroke-miterlimit="10" d="M584,811.1
		c-15.3,0-27.7-12.4-27.7-27.7v0c0-15.3,12.4-27.7,27.7-27.7h207.5c15.3,0,27.7,12.4,27.7,27.7l0,0c0,15.3-12.4,27.7-27.7,27.7"/>
	<path fill="none" stroke="#354254" stroke-width="23.1761" stroke-linecap="round" stroke-miterlimit="10" d="M639.4,935.6H736
		c15.3,0,27.7,12.4,27.7,27.7v0c0,15.3-12.4,27.7-27.7,27.7h-96.6c-15.3,0-27.8-12.4-27.8-27.7l0,0
		C611.7,948,624.1,935.6,639.4,935.6z"/>
	<polyline fill="none" stroke="#354254" stroke-width="23.1761" stroke-linecap="round" stroke-miterlimit="10" points="
		646.3,755.6 646.3,935.6 729.1,935.6 729.1,755.6 	"/>
	<path fill="none" stroke="#354254" stroke-width="23.1761" stroke-linecap="round" stroke-miterlimit="10" d="M667.7,244.3
		c-13.9,2.4-24.2,14.4-24.2,28.5v10c0,15.6,0,31.2,0,46.8c0,11.7,0,23.5,0,35.2c29.1-6,59.2-6,88.3,0c0-11.7,0-23.5,0-35.2
		c0-15.6,0-31.2,0-46.8v-10c0-14.1-10.3-26.1-24.2-28.5C694.5,242,680.9,242,667.7,244.3z"/>
	<path fill="#F1624A" d="M724.6,604.1V410.7c-12.1-2.7-24.4-4-36.9-4c-12.5,0-24.8,1.3-36.9,4v211.2
		C673.1,610.8,698.1,604.5,724.6,604.1z"/>
</g>
</svg>
