<?xml version="1.0" encoding="utf-8"?>
<!-- Generator: Adobe Illustrator 18.0.0, SVG Export Plug-In . SVG Version: 6.00 Build 0)  -->
<!DOCTYPE svg PUBLIC "-//W3C//DTD SVG 1.1//EN" "http://www.w3.org/Graphics/SVG/1.1/DTD/svg11.dtd">
<svg version="1.1" id="Layer_1" xmlns="http://www.w3.org/2000/svg" xmlns:xlink="http://www.w3.org/1999/xlink" x="0px" y="0px"
	 viewBox="0 26 1000 926" enable-background="new 0 26 1000 926" xml:space="preserve">
<g>
	<path fill="none" stroke="#354154" stroke-width="18.852" stroke-miterlimit="10" d="M811.5,103.1L811.5,103.1l-141.2,60.1
		c-11,4.7-16.2,17.5-11.5,28.5l51.6,121.4c4.7,11,17.5,16.2,28.5,11.5l141.2-60.1l0,0c18.4,10.3,37.8,5.2,57.2-3.1l51.2-21.7
		l-84-197.4l-51.2,21.7C834,72.2,816.8,82.8,811.5,103.1z"/>
	
		<line fill="none" stroke="#354154" stroke-width="18.852" stroke-linecap="round" stroke-miterlimit="10" x1="811.5" y1="103.1" x2="832.2" y2="151.8"/>
	<path fill="none" stroke="#354154" stroke-width="18.852" stroke-miterlimit="10" d="M382.1,457L712,316.6l-54.6-128.3L327.5,328.6
		c-11.9,5.1-17.5,18.9-12.4,30.8l36.2,85.1C356.4,456.5,370.2,462.1,382.1,457z"/>
	<path fill="none" stroke="#354154" stroke-width="18.852" stroke-miterlimit="10" d="M52,470.4L52,470.4c-3.2-7.4-11.8-11-19.3-7.8
		l-13.9,5.9c-7.4,3.2-11,11.8-7.8,19.3l37,87c3.2,7.4,11.8,11,19.3,7.8l13.9-5.9c7.4-3.2,11-11.8,7.8-19.3l0,0l262.7-111.9l-37-87
		L52,470.4z"/>
	
		<line fill="none" stroke="#354154" stroke-width="18.852" stroke-linecap="round" stroke-miterlimit="10" x1="52" y1="470.4" x2="67.9" y2="507.9"/>
	<path fill="#F06249" d="M633.1,248.7l-196.3,83.5c18.6,4,41,11.5,62.5,24.9l152.4-64.9L633.1,248.7z"/>
	<path fill="none" stroke="#354154" stroke-width="18.852" stroke-miterlimit="10" d="M423.5,443.9c20.3,49.5,76.9,73.3,126.4,53.1
		c6.3-2.6,12.1-5.7,17.4-9.2"/>
	<path fill="none" stroke="#354154" stroke-width="18.852" stroke-linecap="round" stroke-miterlimit="10" d="M478,497.5
		L290.4,940.2h44.4c18.9,0,36-11.5,43.1-29.1l121.9-292.6"/>
	<path fill="none" stroke="#354154" stroke-width="18.852" stroke-linecap="round" stroke-miterlimit="10" d="M548.4,459.5
		l309.1,459.6c9,13.2,23.9,21.3,39.8,21.3h51.2L579.8,378.7"/>
</g>
</svg>
