<?xml version="1.0" encoding="utf-8"?>
<!-- Generator: Adobe Illustrator 18.0.0, SVG Export Plug-In . SVG Version: 6.00 Build 0)  -->
<!DOCTYPE svg PUBLIC "-//W3C//DTD SVG 1.1//EN" "http://www.w3.org/Graphics/SVG/1.1/DTD/svg11.dtd">
<svg version="1.1" id="Layer_1" xmlns="http://www.w3.org/2000/svg" xmlns:xlink="http://www.w3.org/1999/xlink" x="0px" y="0px"
	 viewBox="0 129.8 771.8 849.1" enable-background="new 0 129.8 771.8 849.1" xml:space="preserve">
<g>
	<line fill="none" stroke="#354154" stroke-width="19.6413" stroke-miterlimit="10" x1="550" y1="887.4" x2="385.6" y2="887.4"/>
	<rect x="385.6" y="798.1" fill="#B5D3D1" width="164.4" height="49.2"/>
	
		<rect x="701.8" y="468.3" fill="none" stroke="#354154" stroke-width="19.6413" stroke-miterlimit="10" width="57.6" height="346.7"/>
	<path fill="none" stroke="#354154" stroke-width="19.6413" stroke-miterlimit="10" d="M720.2,914.7h20.7c10.2,0,18.4-8.2,18.4-18.4
		V815h-57.6v81.4C701.8,906.5,710,914.7,720.2,914.7z"/>
	<line fill="none" stroke="#354154" stroke-width="19.6413" stroke-miterlimit="10" x1="730.5" y1="914.7" x2="730.5" y2="972.8"/>
	<path fill="none" stroke="#354154" stroke-width="19.6413" stroke-miterlimit="10" d="M740.9,410.7h-20.7
		c-10.2,0-18.4,8.2-18.4,18.4v39.2h57.6v-39.2C759.3,419,751.1,410.7,740.9,410.7z"/>
	<g>
		<g>
			
				<path fill="none" stroke="#354154" stroke-width="19.6413" stroke-linecap="round" stroke-linejoin="round" stroke-miterlimit="10" d="
				M206.6,576.4c-8-34.4-12.5-73.3-12.5-114.7c0-138.2,50.4-250.2,112.5-250.2s112.5,112,112.5,250.2
				c0,138.2-50.4,250.2-112.5,250.2c-7.1,0-14.1-1.5-20.8-4.3"/>
			
				<path fill="none" stroke="#354154" stroke-width="19.6413" stroke-linecap="round" stroke-linejoin="round" stroke-miterlimit="10" d="
				M508,319.9c-23.8-17.3-64.3-21-112.6-11.9"/>
			
				<path fill="none" stroke="#354154" stroke-width="19.6413" stroke-linecap="round" stroke-linejoin="round" stroke-miterlimit="10" d="
				M157.8,619.9c-32.1-2.2-56.3-13-67.9-33.1c-18-31.2-1.4-77.9,39.1-125.1"/>
			<g>
				
					<circle fill="none" stroke="#354154" stroke-width="19.6413" stroke-linecap="round" stroke-linejoin="round" stroke-miterlimit="10" cx="519" cy="402.1" r="36.4"/>
			</g>
			<g>
				
					<circle fill="none" stroke="#354154" stroke-width="19.6413" stroke-linecap="round" stroke-linejoin="round" stroke-miterlimit="10" cx="146.6" cy="305.3" r="36.4"/>
			</g>
			<g>
				
					<circle fill="none" stroke="#354154" stroke-width="19.6413" stroke-linecap="round" stroke-linejoin="round" stroke-miterlimit="10" cx="230.5" cy="649.6" r="36.4"/>
			</g>
			<path fill="none" stroke="#354154" stroke-width="19.6413" stroke-linecap="round" stroke-miterlimit="10" d="M197.7,524.6
				c-73.7-54.8-118.6-119-114.8-165"/>
			<path fill="none" stroke="#354154" stroke-width="19.6413" stroke-linecap="round" stroke-miterlimit="10" d="M415.6,398.8
				c87,64.7,133.9,142.6,107.7,188c-18,31.2-66.8,40.2-127.9,28.7c-24.9-4.7-51.8-12.7-79.5-24.1"/>
		</g>
		
			<path fill="none" stroke="#354154" stroke-width="19.6413" stroke-linecap="round" stroke-linejoin="round" stroke-miterlimit="10" d="
			M217.9,307.9c0,0,40.6,6.3,93.5,32.7"/>
	</g>
	<path fill="none" stroke="#354154" stroke-width="19.6413" stroke-miterlimit="10" d="M96,881.8V906c0,31.7,25.7,57.3,57.3,57.3
		h459.2V141.5H14.5v683c0,31.7,25.7,57.3,57.3,57.3H96z"/>
	<polyline fill="none" stroke="#354154" stroke-width="19.6413" stroke-linecap="round" stroke-miterlimit="10" points="
		612.6,190.2 667.6,190.2 667.6,369.8 	"/>
</g>
</svg>
